<svg width="240" height="320" viewBox="0 0 240 320" fill="none" xmlns="http://www.w3.org/2000/svg">
<path d="M174.713 16C178.748 16.7032 180.504 16.9254 183.561 19.8975C187.301 27.2642 186.004 35.9075 188.223 43.7725C190.429 51.5899 194.455 58.8329 195.893 66.8994C197.667 76.8692 196.937 87.6296 196.249 97.6689C193.958 131.049 187.621 146.115 173.199 176.004C168.198 186.367 160.037 198.843 157.415 209.965C154.856 220.818 160.896 262.495 167.069 271.769C168.245 272.223 170.217 272.953 171.281 273.516C174.286 275.103 175.421 276.246 176.089 279.666C177.328 286.009 176.858 295.59 173.418 301.227C166.97 307.129 80.6776 304.335 65.5781 304.289C62.7298 302.789 61.0924 301.547 59.8994 298.421C57.8015 292.92 57.2714 282.528 59.8828 277.081C61.4809 273.746 66.0836 272.536 69.2764 271.239L71.0488 270.534C73.1872 251.038 51.6348 192.35 46.7109 168.572C42.6303 148.868 42.0989 129.767 42.0215 109.753C41.9862 100.66 41.4471 90.1358 48.7041 83.3809C51.5036 80.7746 54.0158 80.6421 57.6201 80.7861C71.2655 81.3335 69.7513 73.8739 79.4766 71.0098C85.3739 69.2728 92.6764 71.821 98.2959 69.3506C103.09 67.2442 106.49 61.0496 111.953 59.4004C118.176 57.5244 125.543 60.4618 131.424 57.2812C133.046 54.7037 134.72 51.7597 136.893 49.6143C142.049 44.5201 151.95 46.6648 158.558 47.0547C161.562 43.4026 161.323 36.5712 162.355 31.833C164.098 23.8498 167.919 20.1857 174.713 16ZM176.265 18.4746C170.488 22.1502 166.864 25.2851 165.254 32.1719C160.024 54.5535 167.852 128.16 148.623 140.586C145.842 142.382 142.857 143.24 139.599 142.134C137.011 141.256 135.32 139.471 133.39 137.647C130.849 139.374 126.447 157.58 123.08 163.413C124.702 170.704 126.287 177.888 129.781 184.57C131.92 188.66 140.169 197.617 139.493 201.3C126.396 195.92 124.188 159.562 109.98 167.318C104.1 170.528 100.687 177.125 92.8223 175.064C87.4232 173.651 84.5127 167.862 81.7402 163.525C79.2544 162.114 77.7594 162.127 75.0107 162.051C70.166 161.913 67.8527 160.529 64.6602 156.923C55.5581 146.638 51.2427 130.892 45.6748 118.435C45.0195 139.516 47.0365 158.079 52.0322 178.54C60.5548 209.607 70.2826 240.066 75.0752 272.004L162.384 271.985C158.75 253.888 151.489 230.75 153.975 212.251C155.454 201.239 162.933 190.178 167.807 180.328C174.567 166.666 182.436 152.043 187.175 137.562C196.677 108.534 195.894 74.402 186.057 45.7959C183.391 38.0479 184.609 27.163 180.247 20.6182L176.265 18.4746ZM95.7715 73.2461C91.6873 72.8987 88.0229 72.8518 83.9336 73.1416C77.4144 75.6717 71.6136 77.9949 68.875 84.9463C67.5837 88.2238 68.2638 91.3831 68.9111 94.7402C71.4176 107.747 77.2773 119.946 80.2734 132.83C82.5832 142.766 81.8273 155.079 85.7773 164.254C87.0636 167.242 89.2234 169.543 91.457 171.852C95.6223 172.326 97.81 172.468 101.711 170.46C104.612 166.628 104.389 166.171 103.708 161.311C101.879 148.245 98.3965 76.7795 95.7715 73.2461ZM129.327 62.8135C125.653 60.6802 123.324 61.2158 119.132 61.2412C111.608 63.4002 105.612 64.5922 101.287 71.6572C100.037 85.2089 102.318 153.283 107.846 160.783C109.347 162.82 111.579 164.127 113.854 165.104C120.952 161.102 123.301 158.311 125.651 150.453C130.518 134.169 132.074 79.3553 129.327 62.8135ZM57.7275 81.9775C52.5893 84.5585 48.7332 86.5634 46.6865 92.3066C41.3373 107.318 53.7316 131.432 60.6934 144.554C63.4861 149.817 66.3468 154.745 70.5732 159.009C74.2082 159.402 75.9491 159.939 79.3672 158.511C85.0169 142.181 66.9344 103.223 64.6279 84.292C62.2861 83.2448 60.2456 82.4758 57.7275 81.9775ZM142.242 49.4902C137.092 52.9727 135.251 55.5384 133.98 61.6475C131.223 74.8829 128.868 124.515 136.043 134.921C137.546 137.1 138.889 137.939 141.165 139.15C144.297 139.274 146.041 138.826 148.925 137.619C160.264 120.344 161.945 72.5274 161.404 51.5303C155.042 50.6372 148.677 49.519 142.242 49.4902Z" fill="black"/>
</svg>
