<svg width="240" height="320" viewBox="0 0 240 320" fill="none" xmlns="http://www.w3.org/2000/svg">
<path d="M114.993 9.26538C118.5 8.9033 123.322 8.59941 126.451 10.5789C129.585 12.5601 129.994 14.4212 130.755 17.8728C131.334 20.4986 131.847 23.0932 132.908 25.5789C135.377 31.3635 139.612 28.9012 144.121 31.4128C148.104 33.6307 149.078 39.1873 150.062 43.2585C155.973 67.7157 155.523 93.3891 160.27 118.092C163.596 135.406 174.644 162.469 172.792 179.105C171.939 186.765 168.509 194.239 165.046 201.037C153.196 224.295 144.025 232.671 147.131 260.515C148.032 268.59 149.16 276.283 151.537 284.063L152.491 284.86L153.982 286.14C157.147 288.82 159.803 291.038 161.049 295.16C162.436 299.749 160.773 303.304 158.588 307.283C152.111 312.879 134.59 310.469 125.934 310.317C114.723 310.366 84.4315 312.407 74.9482 309.186C72.7067 308.424 71.9814 307.877 71.0791 305.635C69.4995 301.709 69.7926 292.445 71.959 288.764C73.7222 285.772 75.0906 286.412 78.0625 285.694C79.0423 285.458 80.2016 285.517 80.9668 284.86C83.4033 282.771 81.2884 264.363 80.8438 261.018C78.058 240.094 70.2644 220.031 67.9492 199.025C66.9422 189.88 66.8524 180.631 67.1484 171.444C67.65 155.823 73.6708 66.5388 80.0088 57.1599C81.5936 54.8135 83.56 53.8617 86.2578 53.2439C87.8633 53.789 89.1016 54.1606 90.7988 54.363C93.825 44.4492 90.1375 29.2231 98.2529 21.5544C100.513 19.4199 104.025 19.9377 106.887 20.0183C108.963 20.0767 108.947 19.5417 110.489 18.2615C111.545 14.5061 112.458 12.2489 114.993 9.26538ZM116.328 10.9998C106.48 26.4053 117.257 105.867 111.226 112.011C108.322 95.7262 113.951 31.612 108.653 22.8503C105.966 21.6013 105.645 21.5189 102.715 21.9167C97.6137 25.3281 96.0097 30.362 94.9561 36.2126C91.2515 56.7999 97.249 115.05 94.0713 123.729C92.3631 110.501 91.6678 97.0834 91.3574 83.7546C91.197 76.8968 92.6799 66.5528 91.0879 60.325C90.7189 58.884 90.5329 58.7526 89.8262 57.6755C87.4164 56.1488 87.149 56.0041 84.3076 56.0457C80.9656 58.4806 79.9655 61.293 79.2979 65.2546C73.8588 97.5062 65.8391 170.674 70.2988 202.23C74.3634 230.989 84.9925 256.259 83.875 286L148.997 285.975C146.972 273.451 143.909 260.013 144.198 247.302C144.662 226.943 166.663 200.54 172 177.552C168.17 169.073 164.068 160.917 159.319 152.911C156.252 147.889 152.907 140.321 146.809 138.557C144.953 138.024 112.757 141.03 111.029 141.712C109.496 143.73 109.086 144.08 109.668 146.768C110.586 151.017 114.27 155.512 118.111 157.484C126.124 161.6 136.595 159.637 145.171 158.875C143.044 161.641 137.884 162.461 134.593 162.896C134.233 162.944 133.872 162.984 133.511 163.027C138.201 169.769 146.951 180.996 147.504 189.328C140.715 180.607 136.575 170.418 129.339 161.898C115.766 178.409 112.055 191.72 110.114 212.735L109.125 212.82C105.904 203.014 111.601 186.144 116.096 177.202C118.717 171.985 122.086 167.036 125.673 162.436C118.725 159.964 110.904 155.952 107.296 149.08C106.304 147.189 106.147 146.07 106.18 143.994C107.365 141.545 108.938 139.946 111.597 139.143C118.051 137.194 142.221 135.498 149.469 136.385C159.169 143.713 163.514 156.775 170.276 166.565C166.11 150.014 161.383 133.359 158.226 116.591C155.409 101.628 152.421 40.0652 142.27 32.8679C140.372 31.5222 138.681 31.2201 136.436 31.4314C133.725 33.5959 133.195 36.5292 132.826 39.8308C130.029 64.8422 140.031 91.559 136.51 116.585C132.727 108.717 130.805 58.4907 130.598 47.1863C130.457 39.5305 132.338 29.1119 130.645 21.7703C129.651 17.4687 127.038 13.2932 122.707 11.7849C120.605 11.0528 118.529 11.0383 116.328 10.9998Z" fill="black"/>
</svg>
