<svg width="340" height="320" viewBox="0 0 340 320" fill="none" xmlns="http://www.w3.org/2000/svg">
<path d="M202.393 8.40027C206.593 8.08574 211.107 7.64714 215.272 8.47937C223.991 10.2182 248.048 17.6208 252.791 25.4628C253.646 26.8761 253.499 27.0759 253.083 28.7684C251.14 36.6775 240.128 41.4312 233.803 45.5448C225.671 50.8351 219.095 46.6684 211.322 50.2059C207.203 52.0789 203.089 53.4611 198.792 54.8729L193.801 61.5575C193.121 62.4497 192.395 63.3085 191.747 64.2255C181.984 78.0348 179.844 111.393 182.604 127.719C185.746 146.288 197.633 161.734 212.552 172.565C234.824 166.939 253.542 150.815 277.102 152.571C286.174 153.246 294.999 155.326 301.065 162.482C301.8 165.244 302.841 169.459 300.84 172.041C298.39 175.2 283.897 179.759 279.323 181.706C259.047 190.338 238.403 197.832 219.108 208.612C204.282 216.896 190.815 227.366 176.495 236.454C171.476 239.64 162.185 242.619 159.579 247.959C155.407 256.725 149.637 266.409 147.683 275.882C150.273 276.772 152.878 277.634 155.302 278.924C158.571 280.662 159.418 281.029 160.24 284.787C161.57 290.881 161.869 303.32 158.545 308.418C143.127 312.715 57.7879 313.181 42.2554 309.626C39.5396 306.656 38.4734 304.122 38.2437 300.129C37.8832 293.863 37.2952 284.462 41.7515 279.55C46.7592 276.855 52.0855 277.369 57.6128 277.356C69.924 244.133 91.2791 215.201 103.702 182.114C110.565 163.834 114.852 144.662 120.491 125.988C124.385 113.094 129.526 100.485 133.078 87.5184C137.895 69.9437 141.548 52.8953 148.006 35.7411C154.709 30.631 157.593 26.8247 161.53 19.1737C175.104 15.4065 188.727 11.8141 202.393 8.40027ZM210.507 21.9686C204.433 19.7309 199.142 19.7067 192.799 20.4012C178.851 24.5634 164.574 28.9295 151.762 35.994C144.516 53.6476 141.169 71.2425 135.97 89.3993C132.228 102.471 127.072 115.115 123.252 128.18C118.135 145.686 114.119 163.751 107.81 180.87C95.3733 214.604 74.3461 244.395 61.0005 277.813C88.4944 277.854 116.028 278.207 143.518 277.822C156.245 249.604 163.821 233.763 168.5 202.824C172.677 212.458 166.46 231.412 163.224 241.002C184.821 230.652 202.38 214.18 223.731 202.942C238.359 195.245 292.554 175.966 299.326 168.429C299.939 166.042 300.477 166.233 299.314 164.425C295.887 159.1 286.444 156.959 280.619 156.188C269.093 154.665 259.073 157.139 248.5 161.677C235.754 167.559 224.06 173.33 210.115 175.921C195.323 162.169 187.585 149.669 179.292 131.408C178.471 131.665 177.676 132.039 176.828 132.176C176.352 132.253 175.868 132.083 175.387 132.037C178.904 111.524 181.125 91.2903 185.376 70.9276C182.234 76.2947 178.911 81.6143 176.08 87.1532C177.927 105.903 176.509 121.874 166.677 138.466L164.812 139.446C164.103 133.718 168.759 126.318 171.1 120.958C174.741 112.621 173.845 100.6 173.578 91.618C171.139 98.151 169.114 104.216 164.81 109.805C164.892 96.7364 185.996 61.1161 195.629 53.2274C206.45 44.3665 214.173 51.0352 224.527 32.4589L224.559 29.5604C220.969 27.544 218.164 27.8906 214.228 28.9803C190.349 35.5897 166.239 53.043 154.566 74.9012C151.616 80.4263 143.585 104.21 140.437 106.586C143.701 85.0535 151.742 71.0544 165.482 54.6093C167.471 52.2296 169.956 51.1858 168.253 48.0673C167.975 47.5567 166.619 46.0939 166.184 45.6102L167.392 44.2792C168.043 44.5378 168.678 44.8429 169.344 45.0555C173.878 46.505 177.845 45.4112 181.767 42.9784C188.195 38.9916 193.093 33.0507 197.857 27.285C199.871 28.5661 200.043 29.0409 201.109 31.0839C205.961 29.7567 210.119 27.2561 214.511 24.8534C213.431 22.5254 212.898 22.8492 210.507 21.9686ZM227.498 30.4384C225.613 34.7822 219.899 41.3554 220.001 45.701C222.153 46.5474 223.807 46.8645 226.107 46.9999C230.096 44.2423 233.305 42.1685 235.871 37.9384C235.913 35.8416 236.44 34.703 235.009 32.996C233.035 30.6427 230.864 30.0845 228.108 28.9999L227.498 30.4384ZM245.588 24.8456C239.183 17.5958 216.345 10.2143 206.79 11.0673C206.065 11.133 205.343 11.2223 204.619 11.2987C191.569 14.4154 174.461 16.5745 163.051 23.5594L161 26.9833C178.538 27.4362 184.436 11.9046 212.492 19.8954C223.607 24.2435 233.824 26.811 241.088 36.9999C244.361 35.8982 245.578 34.6296 247.818 32.0282C248.205 28.4068 248.188 27.7882 245.588 24.8456Z" fill="black"/>
</svg>
