<svg width="240" height="320" viewBox="0 0 240 320" fill="none" xmlns="http://www.w3.org/2000/svg">
<path d="M142.614 10.1455C144.215 10.3293 146.204 10.4555 147.701 11.0527C163.186 17.2307 164.603 54.8307 163.787 68.8789C163.112 80.5021 157.552 104.857 161.423 115.338C163.326 116.176 166.481 117.279 167.837 118.881C171.352 123.038 172.31 136.588 173.317 142.309C175.085 152.358 178.78 163.813 177.948 174.015C175.991 198.01 147.252 212.346 146.216 242.992C145.875 253.061 146.384 276.974 153.333 284.534C154.949 284.883 157.319 285.168 158.75 285.96C161.194 287.312 161.888 289.313 162.152 291.954C162.706 297.473 163.065 305.898 159.582 310.229C146.043 315.169 115.124 312.363 99.6104 312.253C91.8682 312.415 71.3935 314.721 65.9385 309.807C63.3801 307.502 61.7402 301.748 62.124 298.358C62.8789 291.689 66.8899 287.812 71.9863 283.974C74.1679 282.33 73.8945 278.769 73.9658 276.087C74.8333 243.451 68.4037 210.972 66.7871 178.552C65.8996 160.738 68.3267 142.41 69.8691 124.672C70.6382 115.844 70.4029 103.967 75.1611 96.3711C78.6154 93.6147 82.6666 93.0416 86.8613 92.0869C88.0284 90.1503 87.9662 90.7196 88.2744 88.8906C89.1347 83.7655 88.8303 78.9457 92.2988 74.791C108.355 66.3264 109.087 78.5775 114.521 79.4619C117.387 79.927 124.925 70.9696 135.358 71.3398C136.742 64.2305 137.902 57.3567 138.114 50.0967C138.363 41.609 135.681 23.6916 138.412 16.2461C139.308 13.7997 140.893 12.0305 142.614 10.1455ZM129.022 110.146C127.324 115.876 123.579 135.332 118.705 137.748C114.11 140.025 109.199 137.207 104.886 135.45C104.728 135.925 104.581 136.403 104.414 136.873C103.55 139.299 103.052 140.937 100.636 142.012C98.4478 142.983 97.4561 142.994 95.1553 142.787C90.7753 140.38 88.8902 137.088 87.4502 132.374C86.4135 128.979 85.9391 125.339 85.3828 121.836C81.3273 118.526 77.5019 115.38 74.1328 111.321C72.0878 131.995 68.5555 153.823 69.1318 174.562C69.4837 187.257 71.734 200.156 72.9639 212.811C75.292 236.755 76.8663 261.065 76.6504 285.137L149.663 285.146C146.693 272.203 144.038 259.885 144.111 246.518C145.143 211.038 164.884 205.814 176.068 179.142C175.402 165.122 172.612 131.504 164.744 120.893C161.997 119.402 162.061 119.504 158.995 120.191C152.204 125.752 149.657 132.108 148.866 140.731C147.791 152.432 152.027 162.222 156.756 172.558L155.999 174.019C151.745 170.403 149.044 161.35 147.08 156.158C146.477 160.071 145.617 164.374 145.98 168.332C146.371 172.593 151.113 184.745 149.787 187.715C143.694 179.555 142.568 171.471 144.001 161.434C144.856 155.44 148.392 145.503 145.084 140.188L143.751 139.701C140.987 138.667 137.978 138.018 136.635 135.155C133.161 127.748 135.074 115.961 129.022 110.146ZM80.3271 95.1455C77.2992 97.4758 74.0541 99.9643 74.0684 104.211C74.0841 108.66 79.3102 115.359 82.8242 117.689C83.1913 117.933 83.6032 118.102 83.9932 118.309C85.2677 116.527 85.8286 115.298 86.5928 113.291L87.9219 113.307C89.8931 122.06 87.3562 129.369 91.5469 138.299C94.9706 139.06 95.9949 139.731 99.291 138.33C104.362 130.15 103.636 118.418 105.068 109.034C99.0869 102.774 90.3427 95.6062 81.3232 95.1709C80.9907 95.1553 80.6596 95.154 80.3271 95.1455ZM128.142 74.1514C124.88 76.4565 119.87 79.2549 119.102 83.582C118.77 85.4496 121.044 88.1709 122.04 89.834C125.036 94.8318 129.144 99.5066 131.226 104.986C134.387 113.306 134.82 127.988 139.874 134.702C141.487 136.846 143.56 137.503 146.015 138.146C148.03 131.04 150.489 125.587 155.068 119.726C152.304 105.12 148.519 83.015 134.272 75.2012C132.288 74.1129 130.334 74.1313 128.142 74.1514ZM104.225 75.4277C101.668 74.7693 98.3093 75.4306 95.708 75.7305C93.0692 79.1161 89.8147 84.5272 90.085 88.917C90.4927 95.5162 104.238 100.586 106.956 108.32C109.609 115.868 101.88 129.555 108.102 134.543C110.61 136.554 113.962 136.873 117.024 137.146C123.317 128.446 125.398 115.057 128.068 104.854C123.444 96.3903 114.371 78.0416 104.225 75.4277ZM144.35 12.1455C143.07 13.865 141.629 15.7785 141.116 17.8984C139.209 25.781 141.251 37.2949 141.25 45.5938C141.249 55.0336 139.911 64.1911 138.068 73.4258C143.303 80.285 148.632 86.8702 152.128 94.8418C152.347 95.3411 152.585 95.8318 152.799 96.334C155.347 102.332 156.237 109.491 157.479 115.884L158.379 117.146C158.977 111.465 157.99 105.855 158.509 100.163C160.768 75.3527 168.037 38.634 151.622 17.1406C149.571 14.4552 147.409 13.4459 144.35 12.1455Z" fill="black"/>
</svg>
