<svg width="240" height="320" viewBox="0 0 240 320" fill="none" xmlns="http://www.w3.org/2000/svg">
<path d="M112.826 10.1307C115.473 9.95074 118.193 9.94388 120.837 10.1903C125.953 10.6693 127.46 12.4542 130.614 16.2313C133.217 19.3457 134.742 20.9381 138.381 22.6981C141.636 20.4154 145.363 17.7376 149.332 16.8671C153.693 15.911 157.867 17.1383 161.417 19.7479C176.408 30.7667 165.892 57.3341 164.448 72.3641C163.936 77.7074 164.884 83.2083 165.785 88.4677L166.129 90.4022C174.641 97.2906 186.939 105.794 191.65 115.876C199.824 133.37 168.47 169.304 161.957 186.774C157.142 199.685 155.214 263.751 161.011 275.808C164.024 276.561 167.045 277.293 170.071 278.001C172.997 280.215 174.544 282.272 175.024 285.949C175.846 292.213 176.487 301.538 172.573 306.878C163.169 312.571 146.064 310.089 135.206 309.878C117.314 309.988 75.7327 312.959 60.366 308.759C57.3645 307.939 55.7852 307.177 54.6638 304.067C52.3914 297.761 52.8558 286.429 55.8748 280.38C60.1447 276.98 63.758 277.337 68.8953 275.995C73.8118 267.546 69.2263 217.496 66.4246 206.277C62.5873 190.906 54.3911 177.323 51.5017 161.432C47.7696 140.885 47.2873 119.842 48.8064 99.0575C49.7543 86.0808 52.0256 43.1856 59.4021 34.7606C63.0501 30.5954 69.4278 35.2618 72.2488 31.7206C75.6777 27.4191 74.7769 20.6947 80.0701 17.0223C86.9315 12.2629 94.7411 18.4858 101.545 20.08C105.088 16.1158 108.342 13.013 112.826 10.1307ZM57.1238 55.9999C50.8955 93.4001 47.1388 134.58 57.3347 171.663C60.8306 184.377 67.8154 196.45 70.2351 209.383C74.3668 231.471 72.264 254.655 74.6453 276.986L155.887 277C155.3 251.313 150.396 214.254 157.755 189.95C164.004 169.307 186.461 145.558 188.811 128.388C190.001 119.692 185.416 111.82 179.394 105.923C173.61 100.257 166.933 95.0811 160.559 90.0829C155.325 86.3803 150.166 82.4412 144.561 79.3241C138.838 82.1099 132.785 85.4111 126.679 87.2011C118.021 89.736 107.688 89.0141 99.866 93.8036C99.0064 97.2397 98.498 100.061 100.048 103.435C102.562 108.91 108.76 111.598 114.257 112.9C122.758 114.916 134.589 114.334 141.967 109.175C143.13 108.361 144.129 107.33 145.295 106.52C145.937 106.072 146.657 105.748 147.339 105.362L148.653 106.531C147.102 108.514 145.568 110.509 144.048 112.516C145.943 115.679 146.612 117.222 150.293 118.584C153.741 119.858 158.273 119.652 161.985 120.724L162.665 122.554L157.103 124.582C156.653 127.799 156.33 126.44 157.315 128.5C158.83 131.67 159.831 133.933 159.948 137.532L158.731 137.221C154.767 130.287 149.448 118.614 141.264 116.033C137.019 114.695 133.194 115.576 129.438 117.73C119.01 123.714 111.787 135.365 108.908 146.838C106.387 156.883 110.266 173.77 109.284 176.447C106.562 175.6 105.201 175.392 104.008 172.422C99.8552 162.078 107.858 138.508 113.456 129.421C116.122 125.092 119.686 121.4 123.168 117.732C116.396 116.798 105.626 115.38 101.013 109.67C95.6359 103.011 99.5009 93.1332 91.8767 86.4764L89.4509 87.2518C85.3105 88.5474 81.0019 90.3175 76.7986 88.2225C70.2771 84.9685 67.2842 75.9923 65.8953 69.3778C65.4586 67.2637 65.0584 65.1426 64.6951 63.0145L57.1238 55.9999ZM82.5671 17.9999C79.5055 21.7336 75.5021 25.9693 76.0505 31.1444C76.107 31.6684 76.2662 32.177 76.3738 32.6923C82.1618 35.7549 89.5349 38.4629 91.572 45.1874C95.4467 57.968 88.7105 76.3978 97.9783 86.7411C102.779 88.7869 104.825 87.9031 109.902 87.1239L113.489 86.3554C118.431 78.4179 114.958 54.3217 112.577 45.1386C110.129 35.6917 104.801 25.7313 95.8054 20.9755C91.4934 18.6971 87.3765 18.2078 82.5671 17.9999ZM62.2644 34.9999C59.6054 39.9506 57.1152 44.8358 58.3054 50.6532C58.802 53.0781 60.2291 54.6014 61.7664 56.413L63.8142 57.1444C64.9041 54.3794 65.2874 51.8145 65.6941 48.8759C68.9712 54.4311 68.9889 59.8215 69.1492 66.1141C69.3359 73.4364 70.7131 79.4685 76.156 84.6532C77.0276 85.4845 77.9734 86.2342 78.9031 86.9999C83.6083 86.633 84.5439 86.9676 88.2771 83.8124C92.6827 74.1857 93.1901 61.668 89.7371 51.6727C87.7719 45.9828 84.0262 40.6203 78.6502 37.7665C74.6652 35.6518 66.7355 35.3916 62.2644 34.9999ZM119.466 13.1727C117.766 12.9005 115.783 13.0258 114.086 13.0468C110.6 15.5547 107.438 17.2986 106 21.578C105.995 29.0249 113.45 35.8506 115.454 42.9921C118.936 55.406 113.715 71.548 121.55 82.4315C125.162 84.4595 125.318 84.1844 129.453 83.4706C131.332 82.4915 136.666 80.5256 137.211 78.618C140.694 66.4412 139.081 32.4848 132.453 22.2362C129.486 17.6496 124.934 14.0506 119.466 13.1727ZM146.871 18.9999C144.615 21.5098 142.552 23.7718 141.517 27.0858C138.482 36.803 140.993 65.0565 140.673 77.1942C145.755 78.1971 151.108 80.4355 155.851 77.661C161.57 65.2905 170.189 44.4454 165.796 30.8466C164.234 26.0167 160.416 22.1896 155.763 20.372C152.984 19.2839 149.82 19.046 146.871 18.9999Z" fill="black"/>
</svg>
