<svg width="340" height="320" viewBox="0 0 340 320" fill="none" xmlns="http://www.w3.org/2000/svg">
<path d="M105.064 40C114.473 41.2883 120.866 47.3811 129.632 50.1895C138.077 52.889 147.309 52.6285 155.54 56.1104C165.377 60.2818 174.911 66.8591 183.517 73.1172C218.334 98.4227 222.958 121.972 246.008 154.747C259.971 174.596 277.557 191.813 295.644 207.868C299.161 204.598 304.982 197.795 310.196 198.685C315.927 199.663 323.14 206.785 326.033 211.68C328.282 215.488 328.533 219.202 327.14 223.349C324.925 229.962 254.525 298.948 250.168 300.379C245.384 301.95 240.349 300.366 236.385 297.586C231.261 293.997 226.886 287.001 226.565 280.679C226.369 276.703 229.975 273.642 232.493 270.981L232.118 268.533C207.55 242.846 175.108 234.129 143.773 219.656C130.918 213.719 95.637 193.03 96.0298 177.149C96.137 173.06 99.8686 164.245 98.0122 160.775C95.6197 156.354 90.174 154.567 88.8169 148.902C87.2814 142.551 91.5308 136.589 94.4946 131.309C94.0303 126.047 90.2455 123.284 87.603 118.876C85.8355 115.893 84.8353 112.597 86.1743 109.204C89.2275 101.444 99.1368 96.5426 106.225 93.082C83.7463 90.4109 46.0374 80.2848 26.1294 70.3896C20.0768 67.3764 12.2744 61.5367 11.1548 54.3164C10.562 50.5048 11.7208 49.2271 13.8276 46.4062C31.7716 36.6059 84.4593 56.2615 104.635 61.9033C102.546 53.655 102.189 48.1077 105.064 40ZM108.455 42C106.496 48.3166 106.247 53.1293 109.38 59.1504C113.101 66.3301 121.38 76.9135 129.499 79.1211C132.614 79.966 134.572 79.703 137.367 78.2959L140.358 72.1445L142.263 73.0479C141.747 75.7013 139.895 80.8619 141.426 83.0928C154.868 102.773 161.935 86.552 171.567 122.373C175.697 125.521 182.267 129.961 183.299 135.557C183.958 139.055 182.355 143.476 181.554 146.88L180.647 150.878C183.691 155.333 189.014 161.422 186.914 167.115C185.703 170.392 181.822 173.473 179.347 175.859C178.671 178.729 178.422 181.424 178.244 184.364C174.327 189.802 169.697 191.211 163.324 192.146C147.372 194.491 118.728 188.689 109.345 190.86C111.001 192.403 112.069 193.077 114.116 194.079C119.243 196.589 126.471 206.774 136.815 212.226C161.828 225.414 190.243 232.408 213.957 247.997C222.039 254.251 229.356 260.765 236.584 268L294 210.318C276.606 193.907 258.553 177.259 244.703 157.618C213.547 113.455 217.018 93.7566 165.852 63.8096C150.346 54.725 132.329 54.3079 116.555 46.1543C113.867 44.7595 111.143 43.4127 108.455 42ZM102.244 162C101.125 167.12 98.1956 175.856 101.587 180.484C106.223 186.799 118.99 187.437 126.36 188.073C140.993 189.34 156.638 189.677 171.093 186.671C173.65 183.169 174.982 182.279 175 177.871C168.216 172.552 114.941 165.297 102.244 162ZM99.9565 131C95.9884 135.15 92.1102 139.178 92.0024 145.226C91.9128 149.631 94.247 153.029 97.5327 155.753C108.18 164.544 160.771 173.135 176.392 174C179.965 171.222 181.653 169.753 183 165.241C182.353 161.283 181.528 159.218 178.044 156.884C164.147 147.563 118.486 137.051 99.9565 131ZM113.904 95.0059C111.694 94.9826 111.693 95.0252 109.771 95.2109C102.8 97.5196 94.3916 100.27 90.9419 107.399C89.3608 110.647 89.9356 113.628 91.4448 116.767C97.3029 128.985 150.628 143.022 165.236 146.592C170.41 147.858 175.028 149.227 179.843 146.042C180.58 145.551 181.281 144.992 182 144.466C180.454 135.949 178.712 131.363 171.417 126.257C155.013 114.761 131.997 110.379 113.76 101.535C117.713 102.071 126.858 104.428 130.02 102.639C125.492 97.6233 120.839 95.0826 113.904 95.0059ZM106.729 65.7412C83.7213 59.2071 43.7635 44.1574 20.9868 46.1865C17.8423 49.1624 15.6924 50.8642 14.9995 55.3867C15.9589 59.8044 18.2866 61.9368 21.9819 64.2275C39.1798 74.8679 70.4844 81.9024 90.4185 86.5693C102.18 89.3247 115.754 90.7823 126.272 96.9854C131.104 99.8314 133.36 103.787 135.545 108.79L161.875 118.613L164.629 119C165.731 115.545 164.168 111.976 162.64 108.859C152.46 88.3353 122.062 82.4669 106.729 65.7412Z" fill="black"/>
</svg>
