<svg width="340" height="320" viewBox="0 0 340 320" fill="none" xmlns="http://www.w3.org/2000/svg">
<path d="M48.5996 35C73.6235 36.3453 99.7199 46.0667 123.437 53.9609C145.276 61.2295 169.161 68.1237 189.09 79.7861C218.69 97.1058 235.937 127.445 258.162 152.456C271.889 167.917 287.159 181.38 302.931 194.679C306.216 191.71 308.596 189.81 312.803 188.362C317.546 188.751 319.574 190.599 322.893 193.736C327.167 197.787 332.195 201.741 331.994 208.131C331.793 214.851 271.119 272.213 262.889 280.41C261.062 282.093 258.916 284.365 256.402 284.864C251.978 285.741 245.776 282.194 242.658 279.303C238.971 275.896 235.786 269.563 236.271 264.491C236.674 260.307 240.931 256.98 243.764 254.209C227.254 231.005 213.711 218.431 186.877 208.026C177.34 204.324 167.451 200.682 158.518 195.617C143.969 187.353 131.113 175.918 116.816 167.219C111.151 163.78 100.072 160.168 96.5859 154.442C93.3678 149.142 95.0103 143.128 96.7031 137.656L97.1729 136.218C94.2229 132.622 91.1889 128.962 89.0938 124.787C87.82 122.22 87.4348 119.597 88.3398 116.853C90.3178 110.933 95.7987 108.189 100.961 105.467C84.1832 98.0929 14.659 71.6655 8.94336 58.8301C7.45163 55.5104 7.92014 54.6568 9.02637 51.4375C18.5131 42.1193 28.4359 50.6393 39.0791 50.2227C39.5819 47.3097 39.8165 44.477 40.0176 41.5322C42.3976 37.7172 44.6775 36.7469 48.5996 35ZM201.114 91.6094C187.769 88.8118 173.67 86.964 160.057 88.6357C146.913 90.7175 116.367 95.4137 105.638 102.007C104.682 105.019 104.866 105.369 105.755 108.441C110.985 113.747 119.032 114.504 126.157 114.564C142.956 114.702 166.578 107.714 179.822 120.926C181.499 122.594 182.505 124.08 183.326 126.323C176.218 123.922 171.004 117.874 163.526 115.194C169.444 129.518 177.24 142.532 187.97 153.768C191.809 157.797 203.26 165.885 204.467 170.513C200.997 170.711 198.767 168.206 196.219 165.944C188.406 158.997 179.487 144.468 168.422 143.932C164.113 146.423 162.957 149.777 160.995 154.215C159.704 157.106 158.866 158.714 156.2 160.604C143.409 163.956 128.823 162.377 115.663 162.601C128.572 173.777 144.432 183.131 158.682 192.579L160.425 193.651C169.679 199.257 179.47 202.846 189.513 206.729C215.817 216.904 229.815 230.008 245.876 253L301 197.714C284.336 183.509 268.207 169.071 253.789 152.497C236.052 132.077 221.014 110.159 201.114 91.6094ZM101.264 138C98.6462 142.093 95.7264 146.172 97.5889 151.202C98.7802 154.446 101.817 156.324 105.005 157.44C118.747 162.223 140.426 158.923 155.225 158.463C157.49 155.295 158.581 154.218 159 150.323C158.262 149.448 157.708 148.376 156.769 147.696C152.087 144.303 110.828 140.03 101.264 138ZM100.696 109C96.2317 112.085 91.9682 114.859 91.1152 120.505C90.7139 123.114 91.349 125.476 93.2217 127.509C103.74 138.975 148.287 141.885 164.341 144C168.137 142.242 169.743 141.517 172 137.886C171.749 134.907 171.03 133.738 168.521 131.873C155.144 121.936 130.429 123.535 114.827 117.44C110.964 115.929 107.318 113.061 103.94 110.757C101.934 109.383 102.837 109.882 100.696 109ZM196 87.8135C169.389 71.4234 75.0177 36.2492 44.9814 39.1719C42.4295 42.7435 41.7907 43.3583 41.4717 47.8984C42.9155 51.1785 44.6117 53.0074 47.9023 54.4404C65.6653 62.167 116.603 75.7666 128.843 86.2754L128.474 87.5791C120.012 86.7428 110.761 80.5719 102.702 77.3203C87.8438 71.3268 25.1204 46.3205 14.1396 51.3633C11.4703 54.194 11.1847 54.0918 11 57.9229C17.7996 69.5596 40.5652 76.2277 52.8213 81.415C67.7469 88.2315 84.6543 98.2373 100.47 102C100.889 101.683 101.292 101.349 101.729 101.048C120.465 87.9043 172.982 83.9066 196 87.8135Z" fill="black"/>
</svg>
