<svg width="240" height="320" viewBox="0 0 240 320" fill="none" xmlns="http://www.w3.org/2000/svg">
<path d="M85.668 4C115.687 12.3854 83.4872 51.257 93.543 67.2002C96.5232 65.2518 99.8704 62.5982 103.517 62.1709C110.392 61.3648 110.875 65.2887 116.003 67.917C119.882 69.9003 124.428 66.5501 128.257 65.3115C138.263 62.0947 138.879 68.5152 146.538 70.6016C152.998 72.3571 159.141 67.3902 165.984 71.0293C169.297 72.7914 171.029 74.4435 172.062 78.0342C175.375 89.4669 175.009 101.563 177.057 113.219C179.288 125.977 190.476 158.209 184.016 169.741C183.749 170.195 183.467 170.631 183.217 171.083C175.258 184.93 163.004 195.617 155.179 209.479C145.389 226.808 146.938 245.693 151.982 264.188C153.814 270.93 156.661 281.721 162.954 285.32C165.019 285.324 169.797 284.734 171.112 286.411C174.792 291.141 173.843 300.694 173.76 306.471C173.76 307.417 173.809 308.459 173.56 309.378C172.827 312.229 171.595 314.272 168.865 315.599C165.036 317.461 69.5198 317.554 64.5068 315.352C61.6099 314.086 60.7273 312.659 59.4619 309.856C57.1978 304.832 57.2648 296.565 59.6123 291.566C61.2605 288.085 62.9417 286.077 66.6377 284.913C67.3869 284.679 68.1365 284.476 68.9023 284.258C71.0492 279.334 57.797 216.353 56.0654 204.299C54.0342 190.214 52.7688 176.214 53.0352 161.974C53.6013 131.868 65.2893 23.4475 85.668 4ZM85.0957 7C65.7401 41.3947 53.6444 141.436 56.3857 180.938C58.7616 215.45 67.3186 250.85 73.3994 285L156.653 284.981C148.047 263.796 139.175 238.767 148.412 216.204C156.503 196.454 176.025 183.043 183.02 162.86C183.236 162.266 183.452 161.679 183.668 161.085C183.784 160.727 183.884 160.366 184 160.006C181.89 148.066 180.644 126.127 171.556 117.683C162.002 112.752 139.324 101.29 128.758 103.928C125.335 104.785 124.953 106.311 123.607 109.184C123.857 119.17 129.506 127.498 136.55 134.229C142.581 140.055 149.825 144.483 157.75 147.201L158.447 148.695L153.23 149.352C153.596 153.408 156.154 155.157 158.746 157.986C160.474 159.865 159.91 158.987 160.707 161.297C158.481 161.685 157.783 161.187 156.055 159.765C151.054 155.653 151.42 147.851 145.173 144.842C138.56 150.156 142.198 171.577 127.96 167.963C124.106 166.985 120.251 163.547 117.161 161.173L115.167 162.049C109.734 179.544 112.958 196.6 121.231 212.504L124.006 217.751C114.32 208.955 110.749 201.097 110.134 188.069C109.718 179 112.925 166.898 110.482 158.604C108.372 157.173 106.428 156.218 104.119 155.205C100.68 153.698 98.2041 152.014 96.9912 148.218C94.3662 140.036 100.048 125.896 100.862 117.033C96.5427 112.351 92.1899 107.948 88.9668 102.402C87.2058 103.345 86.7401 104.091 85.5771 105.659C78.9485 87.9917 104.002 21.6413 90.6943 8.4707C88.8502 7.93617 86.9896 7.28143 85.0957 7ZM125.678 128C123.398 136.424 117.627 150.87 121.07 159.149C122.331 162.174 124.869 164.022 127.94 164.777C129.735 165.218 132.176 164.892 134.019 164.754C138.448 157.322 139.192 150.222 140 141.711C135.183 137.491 130.576 131.806 125.678 128ZM105.462 65C100.235 66.4782 96.2456 68.1441 93.3311 73.1006C89.6189 79.4232 89.6024 88.1953 89 95.3857C92.0285 100.886 94.9916 106.398 98.3457 111.7C96.1639 102.774 94.8946 94.8254 94.748 85.6182L95.5615 85.2021C100.511 100.862 105.021 116.059 101.586 132.387L100.365 138.298C99.9582 145.324 100.756 149.387 105.168 154.819C108.017 156.127 108.685 156.549 111.746 155.042C116.761 152.586 119.187 145.024 120.083 139.938C122.46 126.443 118.275 112.297 125 100.093C121.939 88.4777 119.952 76.1134 111.697 67.0752C109.565 66.2208 107.692 65.51 105.462 65ZM152.049 72C148.917 75.0497 147.938 75.7189 148.003 80.2012C148.133 88.6018 149.536 97.3862 150.319 105.769L170.369 114L172.05 113.656C173.73 105.046 173.583 85.0912 168.281 77.8525C164.741 72.9964 157.481 72.6242 152.049 72ZM127.713 68C124.064 69.9562 122.738 70.0781 121 73.8633C121.447 82.9927 126.112 91.0868 128.229 99.9189C133.013 101.018 137.902 101.972 142.635 103.267L145.663 104C148.193 100.793 146.49 85.8041 145.75 81.1016C145.062 76.7499 143.047 71.5598 138.796 69.3447C135.595 67.6761 131.258 68.0668 127.713 68Z" fill="black"/>
</svg>
