<svg width="340" height="320" viewBox="0 0 340 320" fill="none" xmlns="http://www.w3.org/2000/svg">
<path d="M131.735 15C133.876 15.1405 135.829 15.4163 137.922 15.917C169.408 23.4482 177.156 51.3865 194.701 74.1465C199.774 80.7279 207.02 83.879 210.823 91.6201C221.399 113.146 224.142 137.565 237.301 158.206C246.865 173.21 265.68 195.852 283.898 199.966C286.758 198.863 290.66 196.916 293.75 197.039C300.516 197.309 306.719 206.745 309.984 211.703C310.145 215.44 309.041 217.736 306.922 220.709C299.264 231.451 287.661 240.408 278.341 249.748C266.749 261.364 255.574 274.433 242.906 284.868C239.956 287.297 237.323 289.299 233.483 290C227.561 287.574 221.543 284.381 218.96 278.163C216.716 272.757 218.152 268.311 220.42 263.207C220.608 262.782 220.805 262.364 220.998 261.94C215.656 256.921 207.13 254.098 200.431 251.064C176.944 239.999 149.491 229.164 129.948 211.861C122.855 205.58 116.271 198.098 110.417 190.674C98.2729 175.276 88.3838 158.054 76.8408 142.173C60.5751 119.796 20.5535 75.3024 11.8623 51.4619C10.5336 47.8167 10.7113 43.9133 12.5967 40.4668C14.3124 37.3287 16.3567 36.6179 19.5898 35.7021C34.5023 38.5304 49.5271 61.6615 58.9287 72.8057C61.6461 67.4452 64.5557 61.161 70.0703 58.291C70.9901 58.245 71.8927 58.2155 72.7812 58.1621C68.3609 62.9044 62.8452 68.4692 63.0029 75.543C63.2799 87.954 85.2878 105.051 94.0996 112.164C103.528 119.776 123.486 136.46 136.125 134.897C140.773 134.321 143.077 132.133 145.999 128.625C145.086 120.954 142.326 116.345 136.238 111.655C130.919 107.558 125.308 103.778 119.798 99.9561C108.847 101.306 93.9154 103.508 84.6074 95.999C81.4916 93.484 79.5113 89.4407 79.0693 85.4336C78.6771 81.8733 79.6152 79.1819 81.9209 76.4756C84.137 73.8739 87.8551 71.9544 90.7197 70.1758C91.1489 67.3663 91.0962 66.7263 89.3652 64.3848C86.1456 60.0306 79.7361 57.9771 74.6064 58.001C76.1271 57.811 77.612 57.4553 79.0762 56.7021C81.9973 55.2014 80.9245 44.5147 82.8896 40.6592C90.9912 24.765 103.16 33.7362 111.098 29.3916C120.058 24.4882 119.493 18.2512 131.735 15ZM19.2031 37C16.95 41.0816 15.1108 44.1471 16.457 49C21.6811 67.8268 65.8315 119.446 78.8662 137.323C95.6824 160.389 109.306 186.147 129.717 206.325C140.439 216.927 155.411 225.081 168.706 231.897C187.327 241.446 206.492 250.085 225.42 259L281 203.028C242.668 179.592 229.579 154.481 216.324 112.441C213.151 102.376 210.305 91.6817 202.21 84.3496C192.977 75.9886 179.334 74.119 168.548 68.498C143.632 58.4196 121.458 60.3292 96.998 71.4561C92.0553 73.7035 85.6712 77.4228 83.7266 82.9287C82.7841 85.5924 82.4745 88.344 84.0459 90.8506C86.9782 95.5265 93.6574 97.2987 98.7656 97.9355C109.611 99.2853 121.038 97.422 131.699 95.4209C141.683 100.83 148.202 99.8999 157.201 103.645C165.028 106.901 170.25 114.591 178.556 117.144C184.23 118.887 196.551 116.748 200.291 119.648C195.282 122.933 187.467 121.675 181.953 120.541C174.617 119.031 168.773 115.426 162.569 111.409C155.357 129.077 156.39 152.839 163.591 170.345C167.417 179.647 173.787 187.316 180.404 194.738C173.525 192.269 165.19 181.983 162.253 175.311C155.488 159.946 154.712 145.076 154.408 128.664L153.202 128.192C145.062 132.804 139.306 140.41 129.098 137.22C110.708 131.472 80.5215 106.454 68.5596 91.6133C56.8755 77.1194 39.5841 38.9738 19.2031 37ZM126 99.8672C132.77 108.945 143.747 113.643 150.492 123.746L155.3 125C157.416 121.872 159.546 118.184 158.873 114.274C158.332 111.14 156.953 109.189 154.222 107.453C147.183 102.981 136.598 101.942 128.641 98L126 99.8672ZM152.5 23.5C159.397 36.6306 162.786 50.2691 166.418 64.5C175.04 67.8246 183.718 71.6494 192.499 74.5C181.925 57.7468 169.767 34.1165 152.5 23.5ZM106.775 32.6123C104.201 31.7853 101.695 31.9836 99.04 32.1396C93.4358 35.6958 87.2273 39.4305 85.4229 46.3496C84.1875 51.0901 85.8084 56.3042 88.3125 60.3447C90.4994 63.872 93.4783 66.9474 96.2598 70L108.293 65.9834L126.999 60.1562C122.491 51.0049 117.201 35.9641 106.775 32.6123ZM143.592 19.7285C138.728 16.8487 134.327 16.7584 128.88 17.1914C122.811 21.1062 118.416 25.1242 114 30.8594C121.025 38.9852 125.544 48.7147 130.553 58.1943C137.374 57.5827 143.175 57.5654 150.008 58.6133C154.343 60.0459 158.718 61.408 163 63C159.579 48.9938 156.832 27.5744 143.592 19.7285Z" fill="black"/>
</svg>
