<svg width="240" height="320" viewBox="0 0 240 320" fill="none" xmlns="http://www.w3.org/2000/svg">
<path d="M105.237 8C108.973 8.22377 112.979 8.999 115.884 11.5049C128.788 22.6329 130.383 81.4912 132.207 99.7305L142.265 112.585C146.087 88.9281 150.482 65.4237 158.511 42.7686C160.944 35.9029 163.898 26.4539 171.581 23.8428C174.168 22.9583 177.019 23.3275 179.295 24.8418C183.982 27.9641 185.6 33.1451 185.431 38.5303C185.082 49.5333 181.383 61.2491 179.031 71.9854C175.287 88.5616 172.049 105.251 169.325 122.025C167.045 136.803 164.76 151.819 163.586 166.734C162.66 178.511 162.86 190.533 160.619 202.155C157.949 216.009 150.396 228.797 148.474 242.724C146.993 253.455 149.034 264.645 150.444 275.297L151.53 281.237C154.26 284.223 155.83 283.963 159.852 284.452C161.613 284.665 161.547 284.315 162.716 285.496C165.856 288.669 167.149 294.818 167.103 299.17C167.061 303.242 165.708 307.562 162.353 310.13C160.413 311.615 158.073 312.422 155.656 312.581C139.35 313.652 122.028 312.335 105.623 312.286C94.786 312.255 82.0207 313.967 71.4874 312.156C69.4602 311.808 67.0266 310.963 65.7804 309.271C62.7871 305.21 60.9229 301.301 61.963 296.128C63.1026 290.46 67.3145 287.023 71.8595 284.001L72.9884 283.265C75.2763 276.356 61.4436 239.909 58.9259 229.933C51.2572 199.536 57.0811 189.987 57.6827 161.536C57.9331 149.651 55.0849 136.457 57.7774 124.845C63.2441 101.275 69.6735 115.681 80.2481 106.414C84.4419 102.739 84.9213 96.5491 89.8175 93.3838C96.4443 92.2666 99.8686 94.8928 105.237 98.3145C102.272 81.4344 94.854 30.9616 98.4503 16.2783C99.495 12.015 101.717 10.3132 105.237 8ZM113.913 82.2471C109.739 88.1998 107.376 93.6371 108.713 101.042C109.693 106.475 113.534 111.888 115.989 116.804C122.527 129.896 121.633 143.745 120.519 157.938C120.72 158.342 120.915 158.747 121.124 159.147C125.059 166.681 131.838 171.622 135.647 179.008C128.732 174.756 124.108 169.026 119.169 162.744C113.965 174.323 108.503 169.412 103.453 178.585C93.0993 197.392 97.6944 215.538 93.8653 234.987C88.7708 214.029 94.3574 191.019 103.766 172.143C100.549 169.143 96.151 162.46 91.7276 162.928C91.415 162.96 89.3233 163.51 89.0743 163.569C86.5212 164.175 85.0289 164.328 82.6017 162.996C72.0906 157.232 75.9247 140.936 62.4425 131.224C62.069 129.812 61.5176 129.146 62.1593 127.784C65.6624 128.475 68.838 132.1 70.8311 135.062C76.6044 143.643 76.2939 159.82 88.5372 162.722C90.1773 163.11 90.5773 162.309 91.8517 161.442C95.159 152.512 91.2283 136.452 87.3888 127.993C85.0311 122.802 82.1754 118.103 78.9435 113.408C76.5517 111.817 74.5463 110.814 71.5352 111.296C67.7075 111.908 64.1835 115.041 62.294 118.347C57.0527 127.521 60.0238 145.253 60.169 155.631C60.3898 171.256 56.9101 186.79 57.4747 202.444C58.4869 230.547 70.809 256.944 77.4464 283.96L149.261 283.971C145.403 260.035 143.872 243.998 152.172 220.793C155.443 211.65 158.795 202.94 159.411 193.144C160.148 181.413 149.726 139.304 145.51 126.678C140.996 113.16 130.51 103.427 125.288 90.1416C124.243 87.4816 122.527 84.3149 119.774 83.1338C117.975 82.3618 115.835 82.2989 113.913 82.2471ZM92.9767 95.3418C87.7828 98.7515 83.5771 102.219 82.4405 108.64C81.3202 114.97 87.0197 121.209 89.8517 126.604C95.9393 138.203 92.5341 155.342 100.656 165.688C102.285 167.763 104.696 169.227 106.879 170.657C110.28 169.607 114.408 168.594 115.697 164.759C117.819 158.447 107.391 107.435 103.813 101.6C101.399 97.6637 97.1571 96.3836 92.9767 95.3418ZM170.982 25.9648C155.219 42.1931 147.33 93.027 144.61 115.807C151.483 132.548 153.304 151.128 159.063 168.38L160.248 168.567C161.982 160.559 162.218 152.257 163.298 144.141C164.889 132.185 167.063 120.243 169.144 108.364C172.925 86.7775 179.237 65.1537 182.111 43.5166C182.633 39.5851 183.488 34.348 181.572 30.7129C180.218 28.1448 177.719 26.881 174.986 26.3564C173.554 26.0824 172.429 26.0567 170.982 25.9648ZM106.198 10.1162C102.511 13.04 101.133 14.7796 100.686 19.5557C98.6095 41.6878 104.558 66.3293 106.188 88.5918C108.815 84.8323 111.057 80.5347 116.016 79.8115C118.046 79.5151 119.822 79.8455 121.794 80.2412C124.042 82.9973 126.245 85.7904 128.401 88.6191C127.057 73.7094 125.479 21.4449 113.249 12.8174C111.143 11.3311 108.655 10.7356 106.198 10.1162Z" fill="black"/>
</svg>
