<svg width="240" height="320" viewBox="0 0 240 320" fill="none" xmlns="http://www.w3.org/2000/svg">
<path d="M128.172 0.287354C130.184 0.163603 132.394 0.0123054 134.359 0.585205C159.753 7.98969 129.756 81.5205 127.27 96.8733C125.355 108.691 125.919 122.276 131.897 132.901C143.713 153.901 171.297 113.83 199.487 121.64C204.681 123.081 210.218 126.411 212.642 131.371C213.856 133.857 213.87 136.555 213.061 139.137C208.625 140.896 203.871 141.744 199.244 142.877C190.501 145.021 182.487 147.441 174.807 152.309C164.148 159.066 156.496 170.211 146.721 178.186C135.948 186.976 120.645 192.478 113.526 205.033C105.366 219.429 110.911 236.623 113.992 251.574C115.287 257.86 115.961 265.187 118.132 271.171C119.372 274.59 122.139 277.742 125.563 278.996C128.179 279.954 130.243 280.977 132.657 282.354C132.944 287.585 133.509 293.045 133.231 298.272C133.064 301.43 132.13 304.438 129.323 306.229C127.037 307.688 124.034 308.218 121.374 308.385C109.189 309.15 40.8964 310.066 32.9253 307.34C30.0655 306.362 29.3673 305.601 28.2856 302.84C25.8753 296.68 26.1286 288.222 28.7231 282.184C31.9499 279.322 34.6012 279.912 38.3804 278.723C43.9854 276.961 42.9621 262.94 43.022 257.747C43.2982 233.688 41.9035 210.01 38.0522 186.24C35.2582 168.993 30.0733 150.211 29.6958 132.801C29.5516 126.111 29.834 118.447 33.7251 112.705C41.2343 101.625 75.5856 88.9254 88.6938 86.8811C93.6498 86.108 97.8893 84.4595 102.52 82.6292C107.904 70.0688 112.503 57.1879 116.289 44.0608C120.123 30.6142 120.956 12.0075 128.172 0.287354ZM129.846 3.17212C123.351 15.3226 120.866 39.546 116.459 54.259C113.807 63.1124 107.774 73.139 106.997 82.134C108.472 83.3422 109.935 84.5534 111.434 85.7327C116.277 89.5446 118.636 93.3052 119.326 99.509C120.219 107.541 118.506 124.842 113.063 131.001C109.321 135.237 103.613 137.467 99.1929 140.884C87.5422 149.888 84.7538 167.179 84.7583 181.078C84.7598 186.508 85.743 191.564 87.0552 196.811L86.2759 198.401C84.6884 197.849 83.712 197.922 82.8081 196.354C77.9802 187.985 83.5304 165.064 86.7573 156.023C89.5897 148.086 93.6255 141.719 98.1265 134.65C92.4938 137.927 88.5342 140.059 82.019 141.131C74.4364 142.377 65.0353 149.41 57.6958 145.566C53.9263 140.305 57.7858 135.218 55.8315 130.346C53.6506 124.91 42.7871 125.094 38.9009 120.274C43.9095 119.203 48.2012 124.329 52.7388 123.196L53.2896 117.513L54.8862 116.547C55.374 118.47 55.7416 120.214 55.9878 122.182C56.5185 126.401 59.5805 131.171 61.48 134.963L58.0854 138.593C58.451 141.515 58.8811 141.646 60.9624 143.808C64.4814 144.495 66.9178 144.807 69.9702 142.573C73.2247 140.19 75.6755 136.507 78.0659 133.322C75.9278 124.758 73.3599 107.254 65.2358 102.464C61.1831 100.074 56.7416 100.804 52.6108 102.42C45.2684 105.297 38.1368 110.026 35.0122 117.476C27.5412 135.288 39.7208 176.051 42.2153 196.153C45.0676 224.144 46.6122 251.014 44.4849 279.172L118.173 279.166C112.587 258.589 99.5273 225.597 110.757 205.416C113.062 201.275 116.19 197.545 119.694 194.36C128.619 186.242 140.364 181.379 149.117 173.276C157.071 165.911 163.132 155.731 172.536 150.064C180.623 145.188 192.207 143.136 201.198 140.239C205.992 138.694 210.51 137.206 209.467 131.525C205.113 127.148 199.765 124.546 193.506 124.454C172.181 124.142 143.572 147.723 134.162 146.18L133.502 145.157C133.999 144.95 134.501 144.755 134.994 144.537C137.15 143.59 136.341 144.039 138.208 142.491L137.136 141.638C130.491 136.266 124.093 127.611 123.246 118.781C120.733 92.5691 154.461 20.6409 135.653 5.32446C133.671 3.70981 132.281 3.719 129.846 3.17212ZM82.0581 89.1721C77.0049 91.5964 72.269 94.0244 67.6187 97.1858C72.9037 104.634 81.3304 122.661 80.0161 131.972C79.9197 132.65 79.7471 133.317 79.6538 133.995C79.4967 135.125 79.433 136.266 79.3179 137.399L82.0181 139.172C86.6296 137.568 90.1149 136.502 92.5132 131.872C97.3968 122.448 99.481 106 95.5942 96.1145C94.5818 93.5389 93.0468 91.5197 90.4761 90.3098C87.8507 89.0752 84.8919 89.1829 82.0581 89.1721ZM111.899 87.9426C108.159 84.0959 102.939 85.2613 98.1528 85.6204L95.7241 87.2776C95.4958 89.8059 95.5845 89.5011 96.5298 91.6008C102.421 104.675 94.5026 129.27 96.5894 132.937C97.0704 133.78 98.3275 133.76 99.1968 134.172C101.859 133.959 104.439 133.743 107.077 133.294C114.163 127.358 115.789 117.694 116.453 108.693C116.925 102.3 116.673 92.8527 111.899 87.9426Z" fill="black"/>
</svg>
