<svg width="240" height="320" viewBox="0 0 240 320" fill="none" xmlns="http://www.w3.org/2000/svg">
<path d="M138.518 11C147.907 11.7408 152.596 13.9797 162.673 12.1602C180.359 21.1617 205.705 39.2707 215.648 56.6133C215.977 60.7033 214.756 61.546 212.123 64.71C202.429 76.3641 200.159 80.5245 184.954 81.9307C184.886 82.6217 184.758 83.3094 184.747 84.0039C184.686 88.2672 185.176 89.7202 183.203 93.8223C179.564 97.7611 173.305 98.1892 168.249 99.2627C162.033 108.216 160.347 126.23 154.769 137.15C146.112 154.095 130.822 168.113 124.42 186.18C121.435 194.603 121.952 203.903 122.681 212.68C123.54 223.026 126.979 269.127 133.178 274.333C136.541 275.067 139.407 275.898 142.607 277.237C144.502 279.652 145.596 281.534 145.805 284.674C146.115 289.347 145.973 300.883 142.575 304.148C138.12 308.43 129.962 307.193 124.219 307.096C105.058 307.176 44.2016 310.21 30.052 304.693C27.2859 301.37 25.1292 298.691 24.3215 294.335C21.6705 280.036 36.135 277.621 41.2317 270.355C42.3393 268.777 41.9369 257.808 41.8957 255.539C41.3898 228.073 36.8604 200.979 34.9465 173.625C33.3825 151.251 34.425 128.779 32.8645 106.427C31.887 92.4331 27.3102 75.3828 29.6614 61.7305C31.6492 50.2031 49.0244 46.662 55.7639 37.5576C56.0623 37.1564 56.335 36.738 56.6213 36.3281C70.6853 31.0291 86.0045 27.836 100.461 23.5693C113.292 19.7829 125.737 14.9323 138.518 11ZM94.6819 43.1963C91.3242 40.3171 87.294 40.1709 83.0618 40.543C71.3577 42.726 42.4032 46.1697 35.0579 56.7109C32.7633 60.0036 32.7885 66.7043 32.8108 70.5439C32.8845 83.5822 35.5534 96.6702 36.1897 109.726C37.2324 131.1 36.4845 152.58 38.0588 173.922C40.5146 207.265 47.2219 240.724 44.3049 274.243L126.997 274.266C124.14 251.452 117.09 218.659 119.098 196.062C120.948 175.248 140.718 155.147 150.469 137.24C157.397 124.516 161.736 111.875 164.574 97.6895C164.105 97.3773 163.631 97.0702 163.164 96.7529C149.128 87.1803 118.005 52.6198 102.217 55.2705C99.1885 57.3473 98.2076 58.8092 96.635 62.1104C96.9008 66.8226 97.8118 69.1167 101.439 72.2686C103.745 74.2715 106.206 76.0796 108.698 77.8408L110.371 78.7461C119.129 83.4157 125.418 84.2285 135.066 85.0156C135.235 87.2964 135.419 85.889 133.67 88.499C130.902 92.6234 130.779 97.1149 132.073 101.795C133.279 106.156 137.048 110.709 139.319 114.704L138.54 115.779C133.579 113.337 130.943 106.068 129.284 101.126C128.072 97.5127 127.248 93.7841 126.442 90.0645C122.271 85.8562 117.372 85.4964 111.827 83.6924C107.454 100.181 104.522 117.542 108.838 134.395C110.418 140.561 113.537 147.778 113.853 153.979L112.292 153.976C101.449 136.876 102.581 109.34 106.835 90.3838C107.358 88.0516 107.909 85.7483 108.543 83.4453L106.942 83.6475L104.717 81.6328C102.219 94.1345 105.252 114.667 93.6457 123.346C91.6462 124.843 90.0943 124.617 87.7073 124.888C83.6172 123.308 81.4797 120.936 79.7082 117.02C75.4416 107.581 76.8877 98.8484 78.2219 88.9775C75.912 84.4005 73.5366 79.8509 71.4856 75.1504C62.7191 74.3238 51.1708 72.3823 45.0315 65.1953C44.8051 64.9295 44.6357 64.6201 44.4368 64.332C50.607 66.2013 63.4568 73.6907 69.1057 70.2832C72.4427 68.2699 74.1905 63.6262 75.0823 60.0645C74.9999 67.001 74.4476 73.5808 77.4416 80.0098C78.9713 83.2954 80.7046 86.5471 81.178 90.1826C82.5379 100.628 73.9862 115.923 88.6125 122.162C90.3839 122.918 91.1745 122.039 92.8205 121.352C100.671 110.507 101.09 90.3253 101.781 77.2148C98.7308 74.2979 95.1984 71.47 94.5774 67.0527C93.6719 60.5894 100.207 47.9347 94.6819 43.1963ZM121.827 25.7559C118.084 24.1816 115.001 24.0199 111.017 24.4023C94.6893 28.5129 69.6179 31.5779 56.3977 41.4453L56.8518 42.6064L59.0295 42.0264C74.4207 38.0512 90.0554 34.9905 104.364 44.0244C118.116 52.707 131.856 66.2363 144.36 76.9219C152.421 84.3457 161.83 95.7271 173.905 94.9297C176.305 94.7719 177.838 94.1886 179.846 92.8271C181.288 89.5415 181.695 88.0686 180.542 84.5635C175.934 70.551 135.387 31.4613 121.827 25.7559ZM139.493 13.6982C132.39 16.0065 125.336 18.4707 118.341 21.0859C146.736 32.7696 161.353 61.1748 185.212 78.7852C189.534 78.8812 193.972 79.0287 197.709 76.4375C200.367 74.5924 200.261 72.8605 200.647 69.9678C199.313 66.1212 197.679 63.2171 195.054 60.0771C187.635 51.2038 154.752 20.2319 145.387 15.6309C143.501 14.7032 141.515 14.223 139.493 13.6982ZM155.155 17.0146C157.465 22.7047 200.401 62.991 206.937 65.9492C207.403 66.1618 207.911 66.2632 208.398 66.4209C209.711 64.6169 212.408 62.0515 212.156 59.7656C210.781 47.2914 183.039 28.3124 173.003 21.6963C168.034 18.4193 163.555 16.0231 157.635 14.917L155.155 17.0146Z" fill="black"/>
</svg>
