<svg width="240" height="320" viewBox="0 0 240 320" fill="none" xmlns="http://www.w3.org/2000/svg">
<path d="M140.9 9C144.404 9.10199 147.086 9.21807 150.332 10.6107C168.421 18.3757 181.567 23.2147 195.048 38.8026C202.682 47.6314 218.866 63.1965 217.964 75.1516C214.523 78.2991 210.352 80.2738 206.26 82.4366C197.251 87.2017 191.155 91.406 180.818 88.1776L179.416 87.7293L178.477 88.2005L175.729 85.8496L175.117 87.2211C184.554 128.865 149.801 143.294 134.092 175.637C130.551 182.929 128.411 192.444 126.853 200.398C123.843 215.772 120.934 264.547 129.116 276.617C132.622 277.208 137.275 277.419 140.111 279.685C143.344 282.27 144.042 290.548 144.06 294.383C144.079 298.472 143.555 306.077 140.054 308.867C134.539 313.263 118.847 311.292 111.612 311.167C95.7923 311.222 34.7838 314.343 24.5222 308.139C22.6373 305.356 22.2928 303.388 22.1837 300.119C21.913 292.048 21.1745 282.543 26.9769 276.51L35.5628 278.542C38.5379 276.494 39.1603 275.254 39.672 271.611C43.004 247.901 36.4683 218.735 34.2229 194.803C31.5925 166.791 30.9982 138.574 28.8636 110.514C27.7383 95.7245 24.5293 80.701 24.3236 65.9254C24.2515 60.7013 24.5873 51.1762 28.0424 46.8647C37.4723 35.103 86.0019 20.7846 101.178 17.1483C114.408 13.9779 127.688 12.6433 140.9 9Z" fill="black"/>
<path d="M83.3027 25C83.5644 25.0229 83.8278 25.0212 84.086 25.067C87.8553 25.7508 89.8927 25.9164 92.0724 29.3988C102.295 45.725 91.5104 88.4632 87.7798 106.509C84.8641 109.077 84.6235 108.589 80.6769 108.443C66.1163 99.4708 80.0111 63.0469 69.6799 48.6276C68.5119 53.1021 68.8264 57.4339 64.9658 60.0809C59.001 59.8395 52.8132 55.5817 47.3455 53.162L46.2407 54.2846C49.8431 60.1479 61.7884 62.8266 68.1923 64.8974L72.0476 74.4774C70.7496 83.6856 68.3451 95.8192 72.6061 104.557C74.7296 108.913 78.0738 111.051 82.6422 112.408C83.7663 112.105 86.3518 111.363 87.453 111.264C89.3447 111.093 90.1544 111.571 91.4137 112.794C95.7608 117.011 98.297 120.116 104.58 119.993C113.683 114.874 121.594 79.93 125.418 68.4908C135.322 77.2372 139.016 90.1939 147.701 100.114C151.5 104.453 157.384 110.346 163.26 110.773C160.216 104.574 151.843 100.155 147.125 94.7406C143.133 90.1586 140.038 84.7342 136.922 79.53C141.889 80.5293 145.911 80.9909 150.972 80.5962C148.43 79.4454 145.915 78.2312 143.433 76.9553C135.05 72.6763 125.565 66.8624 122.892 57.1273C121.754 52.977 122.5 47.7588 124.878 44.1337C126.962 40.9544 127.392 40.7693 130.885 40.216C139.256 43.1855 144.501 51.3715 149.691 58.1565C160.189 70.054 171.418 81.4492 173.65 97.964C176.956 122.411 156.067 138.097 142.901 155.626C116.13 191.267 118.512 236.014 124.276 277.981L42.1009 278C43.0827 246.008 38.581 215.362 36.1291 183.604C34.1707 158.229 33.7474 132.736 31.5308 107.377C30.3505 93.8701 27.4226 80.0922 27.0713 66.5804C26.9572 62.1922 26.7499 55.7721 28.5661 51.6746C33.8247 39.8089 71.4557 29.4516 83.3027 25Z" fill="white"/>
<path d="M142.563 12C144.826 12.4249 147.269 12.8287 149.417 13.6417C160.601 17.875 194.071 63.2999 199.012 75.5906C200.398 79.032 200.326 80.2787 198.797 83.5814C195.19 86.345 191.991 86.4996 187.616 87C164.989 79.1234 156.094 56.5487 140.172 41.3626C137.002 38.3409 133.242 39.9895 130.533 36.2128C130.945 28.2062 129.419 23.6235 128 16.0928C132.316 13.4573 137.623 12.9201 142.563 12Z" fill="white"/>
<path d="M109.756 16.6102C113.92 16.2416 120.069 15.0403 123.696 17.5599C134.131 24.8104 122.487 41.2939 121.109 50.5394C120.553 54.2603 122.143 58.7892 123.09 62.3365L123.595 64.1739L105.763 117C103.014 116.833 100.889 116.674 98.3912 115.354C94.303 113.194 91.4887 109.794 91.0731 105.168C90.2579 96.0709 96.4892 85.0623 98.5657 76.1198C102.238 60.3024 96.6494 38.0443 92.0753 22.6398C97.4339 19.3778 103.721 18.2049 109.756 16.6102Z" fill="white"/>
<path d="M164 20C176.955 21.779 187.377 35.3716 195.321 44.9479C201.668 52.6012 214.856 66.3572 213.956 76.5148C210.176 77.5421 207.129 78.7451 203.254 77.4069C195.151 65.3702 167.012 29.4815 164 20Z" fill="white"/>
</svg>
