<svg width="240" height="320" viewBox="0 0 240 320" fill="none" xmlns="http://www.w3.org/2000/svg">
<path d="M123.391 9.01903C138.716 8.40699 162.111 22.6904 172.922 32.8218C182.78 42.0589 197.8 60.0873 198.276 74.0796C196.398 78.2929 194.2 79.4129 190.452 81.8716L188.935 82.852C190.574 90.4417 197.468 98.8734 201.121 105.96C190.221 144.198 188.702 153.167 156.171 176.557C148.939 181.757 141.598 187.238 136.267 194.475C127.348 206.585 125.119 221.579 127.443 236.201C129.255 247.59 135.312 268.782 144.849 275.798C148.808 276.091 152.516 276.546 156.418 277.287C159.344 279.779 160.836 280.996 161.358 284.953C162.471 293.352 162.27 302.971 156.744 309.57C142.244 310.954 54.4456 312.509 43.995 308.044C42.1554 307.26 41.7937 306.238 41.0741 304.485C38.1833 297.449 38.4413 287.284 41.0604 280.24C43.1981 277.926 44.7712 277.628 47.7342 276.992C50.4875 276.401 52.726 275.87 55.2782 274.604C60.1481 249.912 50.2229 221.429 47.8417 196.73C44.568 162.776 58.0813 100.062 71.2147 68.6606C77.2646 54.1938 85.9228 39.665 95.6044 27.3501C102.483 18.6035 111.937 18.787 118.552 10.5786C118.869 10.1835 119.166 9.77177 119.473 9.36962C120.776 9.21617 122.081 9.07195 123.391 9.01903ZM117.327 16.5649C118.006 19.863 118.193 19.8949 120.95 21.6499C130.554 27.7614 144.232 28.1004 153.002 35.3725C163.967 44.4649 164.301 64.4589 175.639 71.98C176.239 71.3953 176.842 70.8743 177.408 70.3677C172.161 80.7478 166.137 92.9056 170.087 104.503C172.17 110.617 176.061 114.756 181.25 118.43L181.432 120.009L179.626 120.543C175.238 118.143 172.156 114.852 168.662 111.321C166.627 115.247 165.898 118.182 164.778 122.364C164.674 122.748 164.455 123.092 164.295 123.456L156.181 117.804L154.279 118.321C155.11 122.051 158.251 125.704 157.073 129.202C147.138 118.841 141.854 100.445 139.236 86.56C130.288 81.3391 122.587 68.0784 112.36 68.1489C103.425 73.7915 100.485 95.1513 89.1415 104.854C91.5122 89.426 109.809 81.6528 99.993 64.2016C99.7214 63.7166 99.5079 63.2017 99.2645 62.7026C104.311 63.7556 110.288 65.9653 115.117 63.5757C115.666 62.9072 116.204 62.2295 116.765 61.5698C118.828 59.1341 117.816 59.854 120.007 58.7905L120.612 60.3706C124.131 69.2779 131.29 80.537 141.099 83.5796C144.57 84.6573 145.379 84.5153 148.478 83.1343C150.284 78.4109 149.501 74.9396 147.527 70.3432C143.945 61.9988 138.095 53.4178 132.939 45.9429C120.448 44.2549 107.268 42.7698 94.6639 43.3501C86.0337 57.9878 76.952 72.8832 70.1825 88.4751C57.1091 118.59 47.7612 159.79 50.7421 192.805C53.3807 222.035 58.9701 245.969 58.8114 276.208L139.51 276.21C128.939 255.336 117.83 232.771 125.612 208.865C135.006 180.005 165.156 173.129 180.956 150.029C186.367 142.116 189.21 133.112 192.203 124.112C194.383 117.559 197.775 110.004 196.607 103.051C189.313 92.155 183.79 81.1055 178.774 69.0444C179.879 67.8256 180.593 66.4443 180.408 64.2534C180.166 61.389 178.529 58.0303 177.759 55.2329C173.667 40.3869 169.633 31.5433 155.745 23.4897C146.275 17.9973 132.311 12.2646 121.39 11.5942L117.327 16.5649ZM168.349 81.1929C163.979 80.3835 160.555 82.3 156.132 81.397C155.447 82.009 154.774 82.6285 154.081 83.23C151.278 85.6675 148.283 86.9797 144.891 88.3872C143.181 91.144 142.575 92.9467 143.273 96.2378C144.259 100.885 149.771 110.801 153.602 113.532C155.703 115.026 159.079 115.854 161.545 116.614C164.279 114.204 165.621 109.7 165.984 106.123C166.208 103.923 165.983 102.91 165.872 100.732C165.528 94.0419 168.729 87.3361 168.349 81.1929ZM145.056 34.7515C134.878 28.0542 116.673 20.882 104.559 21.3618C96.5341 30.0398 91.1495 40.1912 84.2635 49.6929C79.9318 55.6703 77.1734 63.646 74.1962 70.4048C81.6005 59.8836 86.449 42.9104 100.183 40.5679C107.828 39.2662 128.304 39.919 134.716 44.3989C136.106 45.3708 136.656 45.9466 137.901 47.0825C143.817 57.7517 149.715 73.601 160.864 79.4429L164.357 79.4556C166.975 76.1697 167.583 73.7193 166.968 69.5005C165.068 56.4942 156.041 41.9796 145.056 34.7515ZM177.893 44.2515C180.271 52.9665 182.057 72.2945 188.456 77.7729L194.707 77.8257C196.208 68.5251 189.933 58.679 184.681 51.3257C182.552 48.345 180.929 46.2586 177.893 44.2515Z" fill="black"/>
</svg>
