<svg width="340" height="320" viewBox="0 0 340 320" fill="none" xmlns="http://www.w3.org/2000/svg">
<path d="M10.7052 21C29.9511 24.9508 49.0862 28.965 68.7384 29.9717C95.5019 31.3403 153.185 22.8454 174.426 32.7842C196.627 43.1627 218.182 65.505 237.225 81.1826C296.127 129.647 311.18 137.408 314.062 216.119C314.413 225.809 312.714 248.688 315.207 256.787C317.424 263.991 327.434 269.491 330.297 277.873C331.738 282.134 331.867 287.008 329.503 290.992C327.767 293.914 325.753 297.25 322.226 297.871C309.74 300.06 211.349 301.129 204.145 296.323C201.818 292.777 201.485 290.662 201.337 286.569C201.337 286.126 201.319 285.68 201.319 285.235C200.949 280.464 200.303 275.274 201.855 270.644C203.148 266.815 207.636 265.537 211.016 264.083L212.752 263.361C221.415 251.415 228.581 196.431 228.248 180.186C219.327 176.636 210.443 172.993 201.577 169.26C199.398 170.148 198.419 170.855 196.646 172.536C196.073 173.075 195.538 173.643 194.984 174.197C193.358 174.397 193.007 174.541 191.142 174.179C180.41 172.09 118.276 138.751 112.494 130.303C112.326 122.361 116.522 113.527 119.575 105.821C124.607 108.165 129.16 110.475 132.72 112.757C155.771 127.528 174.537 148.694 197.625 163.014C206.14 168.289 223.613 171.332 229.468 178.717C232.312 182.306 232.09 188.372 231.721 192.614C231.388 196.151 230.982 199.682 230.521 203.206L218.33 263.455L311.772 263.472C311.698 245.083 311.236 226.695 310.404 208.324C308.761 170.948 303.81 146.007 276.179 118.928C261.476 104.524 191.215 44.8509 175.682 37.0713C166.28 32.3615 156.436 31.3476 146.074 31.499C118.147 31.9072 90.848 34.853 62.8839 32.668C46.039 31.3529 26.6445 25.2395 10.7785 25.0566C11.0371 31.2053 11.4073 35.6458 16.0802 40.2061C32.9442 56.661 110.334 58.9917 135.287 58.4561C137.171 63.4189 139.166 66.6236 142.786 70.5078L145.391 71.4912C148.919 69.6386 150.359 66.4795 152.335 63.1807L154.127 62.2979C154.866 68.199 147.903 75.5744 144.541 79.998C155.217 82.8886 167.352 82.9958 177.418 86.8135C150.488 97.2509 82.5357 42.4609 71.2873 69.6621C69.7912 73.31 70.0499 76.3712 71.3244 80.0449C78.5855 88.8064 100.393 97.0434 117.595 104.906C97.3377 114.647 52.7294 142.534 36.1388 143.071C30.3207 143.258 25.0188 141.842 20.9738 137.481C18.0743 134.345 17.2618 131.481 17.4464 127.327C21.8053 121.302 38.4465 116.609 45.5763 113.098C57.8591 107.058 68.3134 99.4382 78.5275 90.4062C74.0208 87.2959 68.8674 84.0946 67.3898 78.4834C65.4693 71.1213 70.9546 63.7975 74.8517 58.1328C58.1731 56.5462 38.65 55.7286 23.172 49.0664C17.0215 46.4215 10.963 42.3763 8.8019 35.7197C7.02875 30.2303 8.43337 25.9685 10.7052 21ZM121.766 110.404C119.789 115.042 114.027 125.594 116.668 130.483C120.787 138.078 180.465 166.284 192.6 171.856L195.869 168.824L195.648 166.056C176.143 150.127 143.579 120.136 121.766 110.404ZM81.0392 92.6211C72.4875 99.9464 64.1204 106.756 54.3312 112.373C47.4048 116.342 23.6149 124.383 20.0871 129.006C21.3615 133.283 24.0024 136.451 28.0841 138.544C33.2373 141.178 39.5358 139.43 44.7814 138.058C67.1674 127.93 88.9071 116.03 110.665 104.646C102.538 101.082 89.5724 93.3028 81.0392 92.6211ZM133.531 63.9736C124.647 58.7929 112.106 61.3024 102.113 61.3818C109.428 64.9983 128.416 76.125 135.86 73.7109C135.952 69.413 136.043 67.6954 133.531 63.9736Z" fill="black"/>
</svg>
