<svg width="340" height="320" viewBox="0 0 340 320" fill="none" xmlns="http://www.w3.org/2000/svg">
<path d="M139.708 28.1514C175.593 26.1638 238.349 44.0584 268.603 63.4814C276.899 68.8081 283.996 75.2883 289.11 83.8301C308.635 116.489 311.651 183.012 314.416 221.418C315.299 233.567 315.282 246.62 317.848 258.516C321.146 261.744 322.496 261.982 327.094 261.955L329.293 261.929L331.426 264.223C333.425 271.048 333.674 281.211 331.275 287.951C328.543 291.354 324.811 291.777 320.696 292.214C304.52 293.935 287.261 292.179 270.918 292.204C257.574 292.223 243.48 293.866 230.219 292.377C225.721 291.873 222.589 291.085 219.007 288.294C216.225 283.09 214.059 278.133 215.642 272.118C217.624 264.546 224.938 261.525 231.269 258.41C235.667 240.613 230.086 201.902 228.753 182.061C227.57 171.668 228.403 138.446 220.39 131.974C205.213 119.744 161.049 142.772 145.889 149.457C137.842 153.004 128.03 155.866 120.666 160.491C113.036 165.28 107.005 176.625 97.1426 176.642C94.1772 176.648 91.1622 174.656 89.4463 172.305C86.1644 167.837 86.3476 162.866 87.2305 157.68C89.1963 146.095 106.172 134.248 115.118 127.752C99.4084 125.115 86.6807 120.111 73.1367 111.745C62.4413 118.073 52.2117 125.543 41.333 131.503C34.2526 135.384 19.4589 139.623 11.5957 136.259C9.31337 135.284 7.64753 134.527 7.06445 131.941C6.6981 130.3 7.98084 127.523 8.71387 126.193C9.8134 124.231 105.706 42.775 113.419 38.0176C121.715 32.8985 130.312 30.201 139.708 28.1514ZM273.71 70.8594C255.091 55.3752 180.719 28.5445 156.578 31.1807C105.695 44.1397 73.596 73.6562 34.3906 106.52C28.0177 111.868 15.6054 118.959 11.4346 125.635C10.1833 127.631 10.4838 127.01 10 129.001C10.5171 130.926 10.2168 131.516 12.0684 132.663C17.0899 135.788 24.3139 134.405 29.6191 132.7C43.7164 128.165 98.6207 92.6894 111.684 82.2588C117.473 77.6398 122.411 70.563 127.199 64.8828L128.601 65.791C127.316 71.6211 121.092 76.7626 117.355 81.3799C119.691 84.0145 121.277 84.6387 124.813 84.957C129.435 85.3714 133.422 84.3391 137.659 82.7119C141.062 78.7989 139.761 73.5939 140.278 68.4512L141.246 68.9004C144.266 81.7044 146.117 95.6327 147.118 108.769C153.324 105.346 162.65 98.5432 169.424 97.4785L169.603 98.0771L167.122 98.0361L169.299 98.7061C156.38 114.195 84.1641 132.86 89.6123 167.153C90.1628 170.696 91.2132 171.943 93.9824 173.984C98.3867 174.069 101.307 172.507 104.743 169.918C108.614 166.145 112.685 161.696 117.289 158.869C124.98 154.136 134.256 150.991 142.497 147.248C163.818 137.56 185.023 125.339 209.264 126.266C214.852 126.478 219.14 127.509 223.478 131.127C232.837 149.204 234.839 237.583 235.039 260.981L314 261C310.53 216.743 308.995 100.202 273.71 70.8594ZM113.48 85C101.61 94.3013 88.8452 102.047 76 109.891C89.6246 117.982 102.129 122.375 117.67 125L140.226 111.942C142.597 109.896 142.873 109.781 142.986 106.443C143.132 101.474 142.061 96.129 141.396 91.1973C135.225 96.4315 129.654 100.699 125.172 107.615L122.525 107.78L122.493 108.014C122.201 107.28 121.925 106.542 121.616 105.813C120.577 103.317 119.472 102.286 117.231 100.754C110.914 98.9538 105.555 101.372 99.1895 101.237C104.906 98.8092 113.399 96.537 116.761 91.1992L116.191 86.8311C115.461 86.3083 114.308 85.2944 113.48 85ZM138.51 86C134.548 86.6827 130.688 87.3652 126.675 87.5635C123.763 87.7083 122.018 88.4117 119.394 89.7031C117.43 93.1599 117.954 93.8397 118.496 97.8721L121.053 101C126.488 99.531 136.648 94.1483 139.188 88.7207C139.56 87.9224 139.729 87.0396 140 86.1982L138.51 86ZM169.841 98.873L169.299 98.7061C169.424 98.5562 169.542 98.4061 169.656 98.2568L169.841 98.873ZM169.791 98.0811C169.748 98.14 169.701 98.1978 169.656 98.2568L169.603 98.0771L169.791 98.0811Z" fill="black"/>
</svg>
