<svg width="240" height="320" viewBox="0 0 240 320" fill="none" xmlns="http://www.w3.org/2000/svg">
<path d="M140.391 3C142.952 3.56961 145.553 4.15142 147.327 6.23633C154.624 14.781 149.622 55.3559 150.529 68.7637C151.983 90.4782 172.194 117.345 174.155 142.521C175.729 162.837 167.218 184.936 164.443 205.149C160.561 233.446 159.308 261.216 159.308 289.761C161.989 289.777 164.871 289.672 167.539 290.017C170.607 290.412 171.688 291.578 173.582 293.843C174.703 298.619 175.596 306.54 173.302 311.088C172.195 313.296 171.461 314.195 169.113 314.889C165.058 316.088 100.968 316.245 93.9112 315.703C90.4561 315.438 87.6414 314.894 84.5733 313.244C82.2653 310.22 82.4253 309.318 82.0918 305.64C82.0518 304.463 82.0378 303.286 82.0244 302.108C81.9978 297.55 81.8912 294.711 85.293 291.297C89.7488 289.296 94.5655 289.842 99.3682 289.899C97.5939 267.922 86.0674 260.318 78.3965 241.854C68.0575 217.015 72.2197 190.24 69.6983 164.24C68.9778 156.866 64.8019 151.041 66.336 143.391C68.177 134.231 76.2748 136.062 79.5166 131.366C81.2909 128.813 79.464 122.588 81.1983 119.278C82.5456 116.703 84.2262 115.342 86.9072 114.335C97.6198 110.305 101.302 119.752 110.014 122.259C112.175 122.878 113.909 122.695 115.604 121.134C122.194 115.051 122.381 83.8633 122.994 74.6475C119.272 67.1874 115.456 59.7232 112.281 52.0137C109.947 46.332 106.185 37.0536 109.347 31.165C110.774 28.5356 113.763 27.631 116.524 27.2295C122.021 26.4292 125.342 28.9345 129.571 32.0908C129.838 26.2129 129.531 19.287 131.078 13.6426C132.639 7.98769 135.481 5.84018 140.391 3ZM115.043 29.041C112.468 31.3942 110.761 32.0677 110.561 35.8281C109.987 46.7115 122.367 67.2928 126.409 78.0107C129.557 86.4006 130.225 95.267 132.893 103.647C134.387 108.361 138.549 115.245 138.522 119.937C128.424 108.513 129.118 93.8439 125.235 79.8789C124.382 90.4981 124.968 117.861 115.75 123.961C113.722 125.296 111.441 125.514 109.187 124.703C102.903 122.445 96.8725 113.019 89.4951 115.612C86.7472 116.578 85.0262 118.659 83.252 120.812C82.0513 126.109 81.5312 132.048 83.4922 137.219L85.2266 137.153C86.6272 137.107 87.9878 137.007 89.375 136.933C93.6841 136.706 99.0078 139.865 102.783 141.726C102.223 137.339 101.889 133.361 102.289 128.946C104.824 131.648 105.144 140.043 105.651 143.873C114.43 149.852 123.381 155.669 131.919 161.974C138.216 156.331 150.036 148.242 158.12 145.647L158.373 146.354C151.196 153.471 141.51 156.776 133.906 163.354C140.617 169.044 147.087 174.619 154.772 179.007C140.297 179.466 99.3415 130.09 82.0918 141.361C79.4504 145.123 79.3569 149.176 80.2774 153.584C83.4659 168.896 108.306 175.879 117.751 187.39C123.794 194.751 124.701 206.437 133.079 211.894C135.587 213.524 141.484 215.136 142.805 217.438C140.043 218.108 138.736 217.333 136.067 216.558C124.888 209.266 122.393 200.984 116.75 189.654C111.414 203.797 109.573 214.792 112.095 229.85C112.802 234.125 114.336 239.139 113.775 243.452C108.412 228.783 106.772 215.435 110.494 200.068C111.375 196.421 114.776 190.828 113.936 187.325C111.001 188.556 108.946 190.496 105.731 189.267C104.904 188.953 103.369 188.097 102.556 187.657C96.686 188.491 94.2317 196.619 88.4688 192.169C81.6784 186.923 76.7147 175.68 72.5791 168.248C72.8593 191.409 71.5653 216.284 79.6231 238.35C87.2406 259.232 99.741 264.955 101.742 289.908H157.106C156.359 261.306 158.066 232.693 162.188 204.38C164.95 185.378 173.528 161.075 171.728 142.454C169.753 122.17 155.758 92.093 147.367 73.0771C142.138 61.1879 135.654 42.0167 126.489 33.0518C123.288 29.9183 119.405 29.1011 115.043 29.041ZM77.6358 134.296C73.5269 136.979 70.3118 139.254 69.378 144.404C67.0567 157.159 77.9293 175.4 85.3467 185.249C88.1349 188.959 90.1495 190.91 94.7119 192.237C96.9131 189.381 98.8606 187.129 98.2071 183.257C96.2727 171.919 82.1587 165.741 77.9297 155.017C75.4618 148.736 83.4657 137.856 78.543 134.653C78.2629 134.477 77.9425 134.416 77.6358 134.296ZM142.898 6.35742C141.258 5.92665 140.177 5.92115 138.523 6.04785C130.799 14.1976 132.186 24.933 131.973 35.4707C136.989 45.1573 141.818 54.9417 146.447 64.8164L147.342 65.6865C149.223 59.6352 149.449 15.4254 146.834 9.8877C145.98 8.06943 144.819 6.86436 142.898 6.35742Z" fill="black"/>
</svg>
