<svg width="240" height="320" viewBox="0 0 240 320" fill="none" xmlns="http://www.w3.org/2000/svg">
<path d="M148.16 17.0012C153.952 17.0361 159.841 18.7176 163.865 23.1125C172.92 33.0039 169.69 54.5171 169.369 67.2551C181.5 84.3997 191.928 99.2259 197 119.945C193.09 134.823 185.023 149.414 179.385 163.82C169.555 188.939 152.048 243.925 161.785 270.239C165.365 270.926 168.779 271.753 172.283 272.756C175.73 276.176 176.169 278.599 176.282 283.426C176.402 288.611 176.627 296.784 172.827 300.779C158.339 306.213 109.897 303.148 92.1035 303.055C84.9266 303.075 74.5206 304.628 67.7969 302.213C63.7576 300.761 62.7333 298.322 61.3105 294.649C59.3532 289.59 58.4369 283.593 61.2344 278.654C64.0302 273.716 68.8129 271.989 73.8516 270.098L75.4854 269.499C80.1123 244.443 54.889 187.077 48.2051 160.021C42.9373 138.697 40.7391 116.106 42.7197 94.1955C45.7795 60.3718 55.9633 59.4222 83.999 48.2746C88.0349 46.6693 92.9939 45.16 96.6562 42.8078C102.214 39.2361 104.821 31.5068 110.334 27.3146C114.494 24.1506 117.923 24.3425 122.759 25.0129C125.975 25.4571 128.339 25.6426 131.54 25.1818C135.468 22.086 139.35 19.539 143.732 17.1369C145.207 17.0487 146.684 16.9928 148.16 17.0012ZM67.2617 57.0002C58.23 61.1203 53.3936 65.7184 49.7051 75.0558C46.0516 84.3067 45.3619 94.9288 45.0742 104.792C43.7937 148.617 59.3793 178.713 70.6943 219.03C75.4205 235.873 77.895 253.628 80.1367 270.963L157.826 271C155.134 234.808 162.765 199.618 175.783 165.937C180.885 152.733 193.203 132.767 192.997 118.843C192.736 101.335 174.361 76.4373 162.434 64.3674C148.386 61.8044 119.735 57.3005 107.252 65.5685C105.838 68.686 105.429 69.2175 106.805 72.6271C109.961 80.4471 115.284 84.876 122.468 88.6906C129.758 90.4419 136.76 91.4262 144.217 92.1301C149.331 103.659 155.344 112.23 162.716 122.372L161.483 122.466C152.869 113.979 147.528 106.618 142.253 95.7336C123.865 125.087 107.047 148.467 112.637 184.697L111.66 186.984C108.836 184.53 108.75 176.846 108.501 172.944C106.53 142.161 123.894 125.393 135.716 99.4953L134.972 99.2463C134.323 99.6661 133.685 100.101 133.028 100.506C127.728 103.769 123.074 103.106 117.205 101.997C115.386 103.687 115.514 103.945 114.775 106.202C113.324 110.641 110.559 115.889 105.954 117.727C97.0938 121.262 91.9025 115.931 83.8936 123.969C80.6324 124.55 79.4997 124.85 76.3916 123.235C68.4676 119.119 62.8717 102.811 59.3711 95.2082C54.9908 92.8012 51.4029 90.9279 48.21 87.0236C50.9821 87.0684 53.0744 87.9039 55.6719 88.7687L56.0576 88.2473L54.0293 77.3849L54.7891 76.7873C63.0341 90.6017 64.967 110.15 78.0381 120.823C81.5982 121.552 81.4059 121.513 84.5322 119.636C90.1895 109.321 86.1615 94.665 83.0684 83.925C80.7917 76.0168 77.5192 64.9408 72.1494 58.6877L67.2617 57.0002ZM91.9062 47.0099C86.9564 49.4105 82.3124 51.3085 78.6025 55.4631C75.4677 65.042 85.445 80.3231 88.1709 90.1135C90.4502 98.292 89.0183 107.099 91.5303 115.373C94.2409 117.374 95.0194 117.508 98.4072 118C104.405 114.806 109.776 112.105 112.051 105.391C113.178 102.061 113.215 98.6058 112.612 95.1672C111.152 86.848 105.763 79.1783 104.434 71.0295C103.51 65.3754 106.255 56.4332 102.944 51.6389C100.975 48.7855 98.4548 47.6364 95.0703 47.1486C93.758 46.9602 93.1477 47.0017 91.9062 47.0099ZM114 88.0002C114.467 92.3561 114.568 95.0233 117.658 98.3693C122.27 100.778 125.813 100.217 130.574 98.6242C131.388 98.3494 132.197 98.0581 133 97.7502L132.623 94.9875C126.581 92.153 120.058 90.8512 114 88.0002ZM146.545 19.0002C142.338 20.8807 138.985 22.131 136.102 25.8937C132.882 35.8009 137.685 48.066 138.238 58.5949C144.947 59.2234 151.66 59.8079 158.376 60.3498L164.885 63.0002C168.496 58.4645 168.18 49.8211 167.738 44.2287C167.205 37.4999 164.675 27.4263 159.208 23.0451C155.32 19.9295 151.292 19.3807 146.545 19.0002ZM119.625 27.0002C109.579 30.342 105.525 34.7156 100 43.4787C100.271 43.8207 100.545 44.1607 100.812 44.506C103.278 47.6984 107.076 58.2974 110.649 58.8654C113.025 59.244 115.117 58.7442 117.464 58.3605C123.305 58.2243 129.157 58.0132 135 58.048C134.655 49.8264 135.886 35.8791 129.457 29.5891C126.696 26.8901 123.203 27.0301 119.625 27.0002Z" fill="black"/>
</svg>
