<svg width="240" height="320" viewBox="0 0 240 320" fill="none" xmlns="http://www.w3.org/2000/svg">
<path d="M157.509 13C161.709 13.9362 163.72 14.8437 166.262 18.1992C166.323 21.7111 166.294 24.6043 167.696 27.9072C172.867 31.4563 179.914 29.9391 185.921 32.0391C190.133 33.5138 192.95 35.9896 194.711 40.1689C200.426 53.7323 185.634 79.847 179.615 91.7744C200.161 134.444 173.313 155.595 164.898 194.532C161.498 210.262 163.646 226.18 164.765 242.058C165.393 250.976 164.439 264.777 167.433 272.946C170.931 274.124 174.777 275.079 177.717 277.385C179.537 278.81 179.952 281.726 180.189 283.941C180.825 289.907 180.769 299.819 176.67 304.588C160.9 310.397 105.017 307.049 85.0059 306.962C80.4908 307.171 73.5711 308.266 69.5166 306.017C65.6016 303.843 62.7878 299.462 61.5049 295.257C59.877 289.932 60.6736 284.696 63.4619 279.927C65.9361 275.696 68.8749 275.281 73.3525 274.11L74.9512 273.706C81.7399 264.073 49.1031 162.967 45.8164 144.939C43.1179 130.141 41.7798 113.906 44.4629 99.0059C46.7365 86.3787 51.9681 67.5701 63.3447 60.4629C67.1834 58.0656 70.686 57.4214 75.043 58.626C75.2214 58.6752 77.815 59.4603 78.1016 59.498C82.2511 60.0434 85.667 56.3174 88.9092 54.0645C93.5942 50.8125 98.4003 49.9358 103.872 48.7617C104.543 46.604 105.252 44.4597 106.003 42.3291C108.863 34.3147 114.596 21.94 123.258 18.8223C130.413 16.2486 135.04 20.8038 141.474 22.4434C146.296 23.6718 153.276 15.8204 157.509 13ZM68.4941 61C56.3727 68.9338 50.7254 81.0476 47.8369 94.8984C37.5222 144.395 73.7535 220.085 79.3271 274.99L163.473 275C164.097 251.03 157.387 226.556 160.643 202.894C166.052 163.572 194.607 142.072 179.773 99.0352L177.657 97.6445C173.403 101.533 172.27 107.228 168.225 111.24C165.087 114.352 161.109 113.592 157.371 115.292C151.485 117.967 148.238 124.149 141.636 125.116C135.922 123.526 133.57 119.555 130.632 114.775L128.918 114.916C123.486 125.586 137.568 139.525 122.618 146.551C117.771 146.384 113.259 145.084 109.099 147.684C104.227 156.068 107.138 166.279 102.562 173.934C100.799 171.642 101.556 168.295 101.85 165.503C102.72 157.25 104.841 149.025 107.27 141.106C104.959 136.98 103.746 133.38 99.54 130.954C99.072 130.993 98.6055 131.037 98.1357 131.069C93.2082 131.411 90.4083 131.268 86.4346 127.924C77.5177 120.419 71.8596 106.845 65.9287 96.9707C61.0542 96.4776 55.8273 96.5323 51.7715 93.5312C55.7881 92.8375 59.0873 93.9392 62.2783 91.3428C61.4432 88.3149 60.2054 86.1821 58.6123 83.5703L58.6465 81.7236C68.9767 93.24 81.8927 125.281 94.7354 129.762C97.2803 128.957 97.1189 129.611 98.1357 127.572C102.662 118.508 93.5427 94.9797 89.7705 85.9951C87.2409 79.9742 80.2297 64.4926 74.2715 62.2686C72.4837 61.6004 70.3776 61.3248 68.4941 61ZM103.625 53C98.0686 54.3768 87.6822 56.1165 85.2627 62.208C83.8001 65.8936 88.8554 75.4711 90.4717 79.3164C97.2186 95.3771 102.281 125.188 108.637 136.653C109.548 138.297 110.644 139.686 111.81 141.15C115.407 142.564 117.299 143.333 121.251 142.861C124.041 140.974 125.241 139.983 125.853 136.502C127.555 126.808 114.072 63.3869 108.213 55.8779C106.704 53.942 105.797 53.8949 103.625 53ZM128.729 22.0146C127.674 22.0518 126.62 22.1094 125.567 22.1904C118.803 27.0224 111.384 33.5151 110.212 42.3789C109.859 45.0421 109.941 47.8691 110.503 50.4951C112.204 58.4561 115.853 66.0175 117.826 73.96C121.02 86.7984 122.161 99.7435 126.196 112.457C128.306 110.653 127.941 111.663 128.102 109.005C128.894 95.9852 110.806 54.4962 115.778 46.1133C117.559 49.8584 118.344 53.1886 119.08 57.2695C121.74 68.5082 129.712 113.167 138.999 119.478C141.973 121.498 142.774 121.174 145.991 120.406C149.772 117.147 150.186 113.304 150.548 108.577C151.762 92.6922 151.179 37.9212 140.467 26.3281C137.099 22.6844 133.384 21.8763 128.729 22.0146ZM169.917 32.0166C168.95 33.0209 167.744 33.8419 167.015 35.0312C165.079 38.1907 165.233 48.5876 164.388 52.9434C161.195 69.402 153.762 86.5355 154.006 103.364C154.055 106.83 154.94 109.859 156.906 112.735C159.042 112.9 159.66 113.504 161.353 112.049C163.581 110.134 165.312 108.664 167.058 106.26C176.352 91.7123 195.273 62.7061 191.512 44.6475C190.631 40.4198 188.375 37.1414 184.739 34.835C180.095 31.8892 175.242 31.9594 169.917 32.0166ZM156.35 17C152.793 20.4962 149.777 23.7418 147 27.9043C151.907 44.173 150.356 62.2224 155.616 78C161.322 61.6815 167.977 37.3833 163.565 20.3643C160.812 17.0707 160.664 17.4946 156.35 17Z" fill="black"/>
</svg>
