<svg width="240" height="320" viewBox="0 0 240 320" fill="none" xmlns="http://www.w3.org/2000/svg">
<path d="M123.547 0.125977C126.311 0.405941 128.793 0.699991 131.31 1.95703C134.622 3.61161 135.087 5.72544 136.038 9.04297C136.959 12.2554 137.765 14.3884 139.602 17.167C140.438 16.8758 141.559 16.4516 142.417 16.334C145.184 15.956 147.072 16.5819 149.118 18.4297C153.945 22.7888 156.058 30.9654 157.281 37.084C161.706 59.2067 161.401 83.8168 162.999 106.424C164.389 126.088 168.462 153.616 166.622 172.433C164.983 189.194 154.46 204.173 154.281 221.032C154.156 232.716 158.94 243.617 160.604 255.046C161.739 262.848 160.355 270.916 161.341 278.823C163.434 280.972 168.987 280.603 172.231 281.577C174.025 283.372 174.656 285.027 175.139 287.461C176.227 292.947 176.253 300.619 172.873 305.318C160.688 310.044 115.444 307.388 100.058 307.328C93.9055 307.456 86.7352 308.57 81.2539 305.433C78.6631 302.216 78.0047 299.608 77.9062 295.501C77.7881 290.495 77.6879 285.713 81.415 281.933C85.9596 279.798 91.0728 280.408 95.9971 280.451C89.6422 253.506 72.6818 231.616 67.2666 204.161C65.4114 194.755 62.6973 135.204 67.4316 128.786C69.8636 125.49 75.4667 124.912 77.6904 121.694C80.8213 117.163 78.109 109.835 82.3877 104.589C84.2725 102.279 87.0095 101.213 89.9688 101.343C99.4317 101.763 104.734 107.839 110.964 114.001C113.307 100.92 112.191 87.9655 111.918 74.7695C111.537 56.2598 111.53 35.4978 114.455 17.2568C115.687 9.57465 117.185 4.82935 123.547 0.125977ZM87.8369 104.126C83.476 107.873 81.1399 110.601 80.8281 116.458C80.2591 127.152 86.5755 163.526 94.1523 170.608C95.97 172.308 98.2832 173.503 100.874 173.017C101.877 172.829 103.613 171.947 104.565 171.497C108.108 159.579 102.886 147.026 102.543 134.82C97.9219 129.372 89.508 121.146 90.6279 113.393C90.8755 111.681 91.9825 110.711 93.3232 109.648C94.028 109.089 95.1242 108.595 96.0928 108.171C94.3749 111.479 92.9347 113.389 94.3428 117.347C97.1424 125.212 107.044 137.276 114.845 140.424C117.388 141.449 119.158 141.219 121.78 140.929C123.31 140.76 124.829 140.594 126.355 140.399C125.194 144.14 121.496 142.429 121.41 146.548C125.179 153.448 129.915 159.767 135.471 165.313C137.532 167.355 146.488 173.934 146.75 175.9C142.378 175.985 137.336 170.629 134.259 167.671C129.881 163.464 125.964 158.537 122.464 153.571C112.839 173.879 110.541 190.566 108.438 212.712C105.104 196.773 109.085 178.563 115.071 163.712C116.449 160.295 120.169 154.679 120.458 151.271C120.762 147.658 117.021 144.702 114.364 142.986L105.563 137.28C106.694 146.569 112.478 165.511 106.354 173.174C104.063 176.04 99.1263 175.248 96.9863 178.035C94.8059 180.876 93.3183 182.4 90.1406 184.021C87.152 184.084 86.2442 184.133 83.7148 182.226C76.4546 176.752 72.3129 157.373 69.5049 148.72C65.0723 154.564 67.1344 187.64 68.3066 196.067C72.9942 229.739 94.926 254.41 97.9092 281.126L158.207 281.102C158.343 273.133 158.644 265.056 157.391 257.16C155.392 244.566 151.106 231.933 151.685 219.078C152.559 199.653 163.767 184.518 163.792 163.272C139.031 142.631 144.211 129.816 109.006 114.114C104.559 112.132 100.969 109.257 96.167 108.138C96.5199 107.984 96.854 107.839 97.1436 107.704L97.5068 106.132C94.5301 104.487 91.1883 104.34 87.8369 104.126ZM76.7324 124.126C73.4656 125.768 69.1832 127.506 68.0215 131.562C66.0169 138.562 77.7114 171.632 81.9521 178.234C83.1001 180.021 84.5547 181.604 85.9941 183.126C88.9887 182.446 90.5017 182.264 92.6982 179.82C93.5562 174.068 88.2986 169.811 86.4561 164.332C82.5763 152.792 81.6331 138.244 78.5732 126.144L76.7324 124.126ZM124.1 2.12598C116.442 8.87579 116.14 18.0148 115.536 27.6631C114.714 41.433 114.25 55.2218 114.146 69.0156C114.166 84.2026 115.974 100.376 112.792 115.267C144.096 125.425 142.522 142.383 163.792 161.126C161.732 135.228 159.868 109.313 158.202 83.3867C157.429 69.3648 157.403 30.651 147.448 20.6914C145.572 18.8144 144.168 18.3177 141.612 18.0645C137.997 21.4189 137.885 25.6289 137.738 30.3848C137.163 48.9966 144.522 92.9124 137.367 108.361L135.841 109.263C133.474 107.203 132.516 104.059 132.359 100.962C131.562 85.2024 140.364 13.5262 131.167 5.32422C129.356 3.70885 126.363 2.76199 124.1 2.12598Z" fill="black"/>
</svg>
