<svg width="240" height="320" viewBox="0 0 240 320" fill="none" xmlns="http://www.w3.org/2000/svg">
<path d="M74.6025 13.092C76.5161 13.0196 78.6683 12.8346 80.54 13.3577C85.1128 14.6346 88.1335 19.2037 90.2979 23.0813C94.4366 30.4987 96.7067 39.2889 99.5117 47.3059C104.458 61.4512 109.472 75.8425 115.8 89.4446C117.711 93.5529 119.617 98.2596 124.078 99.8665C133.088 93.7635 135.609 39.6613 139.086 26.2844C140.472 20.9488 142.378 16.5575 147.309 13.7542C149.691 13.3639 151.971 13.6567 153.936 15.1858C157.536 17.985 158.693 22.1721 159.286 26.511C163.092 54.3672 152.722 88.9829 152.597 118.085C152.5 140.329 161.563 160.177 163.12 181.966C164.172 196.678 162.608 211.597 162.051 226.313C161.463 241.53 161.828 256.768 163.14 271.941C163.424 275.199 163.107 278.648 165.108 281.28C167.724 281.572 170.551 281.617 172.823 283.062C174.478 284.112 175.411 286.603 175.652 288.466C176.247 293.064 176.502 301.84 172.784 305.258C171.194 306.72 169.047 307.261 166.951 307.406C157.132 308.084 146.784 307.274 136.89 307.334C121.937 307.425 105.218 308.983 90.4609 306.991C88.3627 306.708 85.2911 306.209 84.1191 304.292C81.5246 300.048 81.6268 293.057 82.541 288.329C84.1026 280.255 88.0357 283.768 93.1104 280.326C94.1823 274.615 93.3739 268.485 92.7617 262.745C88.7012 224.695 61.7923 193.345 64.1455 155.036C65.4725 133.427 72.0618 141.616 78.6104 131.444C79.6096 129.893 79.9518 127.447 80.3779 125.666C82.8174 115.442 84.8566 113.248 92.7939 106.27C89.8959 82.5126 72.213 48.1453 70.584 23.8167C70.2576 18.9478 71.2973 16.6397 74.6025 13.092ZM76.0889 15.0002C73.0632 18.8746 72.5836 21.0327 73.2812 25.8782C75.565 41.7434 88.903 88.8128 95.4121 103.294C100.538 114.701 107.713 124.969 112.866 136.542C106.837 134.646 100.335 133.152 93.0811 132C90.5441 134.877 89.1521 136.772 89.29 140.865C89.4348 145.15 91.3088 148.809 94.5264 151.625C112.265 167.147 125.162 152.919 142.654 185.701L141.805 187.283L143.141 188.197L143.045 188.566C136.415 182.274 132.685 171.707 124.437 167.294C123.18 168.783 123.071 169.232 122.423 170.973C121.363 173.814 120.296 175.478 117.408 176.773C116.176 177.327 114.905 177.783 113.633 178.237C110.774 183.421 115.481 198.401 117.12 204.032C118.753 209.643 123.179 216.655 123.388 222.198L121.797 222.064C113.796 211.498 111.552 191.552 110.046 178.481C108.038 180.846 106.839 183.045 103.452 183.503C98.9678 184.11 94.2817 180.724 91.3359 177.737C86.3117 172.639 74.2612 154.738 74.1826 147.713C80.7939 150.391 88.3796 181.878 104.303 181.343C106.387 179.477 106.721 178.938 107.019 175.974C108.212 164.1 90.8411 155.259 87.7383 144.68C87.5137 141.704 87.5702 138.231 84.9805 136.202C82.8872 134.564 80.6991 133.832 78.0498 134.432C73.912 135.371 70.4607 140.857 68.8721 144.437C61.2985 161.515 70.3296 189.124 77.209 205.357C91.6633 239.465 94.0141 244.694 96.2969 282H162C160.152 265.749 159.411 249.393 159.783 233.043C160.307 209.041 163.103 186.38 157.881 162.591C142.724 150.207 129.826 141.985 113.514 136.748C116.102 129.612 118.731 121.837 123.849 116.108L124.976 116.324C123.883 122.642 118.616 129.054 116.321 135.404C132.392 139.975 143.111 147.268 155.744 158C150.884 138.784 149.624 122.187 150.431 102.429C152.049 87.5016 161.907 29.5687 153.907 19.1233C152.236 16.9399 151.086 16.8134 148.578 16.3499C145.362 17.453 143.209 19.1432 141.746 22.2395C135.966 34.4676 136.946 96.5014 124.344 102.253C120.453 101.407 118.755 99.4505 116.678 96.137C103.37 74.9223 97.6373 38.3381 85.9141 20.8821C84.1966 18.3255 82.1208 16.399 79.0469 15.593C78.0743 15.3386 77.0789 15.1787 76.0889 15.0002ZM93.2158 109C88.1651 113.46 82.2408 121.22 82.0049 128.404C81.9436 130.291 82.4591 130.946 83.209 132.601C85.6438 133.947 86.2022 134.022 88.9834 133.996L89.8193 133.35C92.0117 131.691 93.4011 130.605 96.21 130.305L109 133.794C106.344 127.554 101.526 112.404 95.498 109.656C94.5444 109.221 94.1602 109.191 93.2158 109Z" fill="black"/>
</svg>
