<svg width="240" height="320" viewBox="0 0 240 320" fill="none" xmlns="http://www.w3.org/2000/svg">
<path d="M114.971 0.039056C117.262 -0.0518668 120.088 -0.0581749 122.235 0.87304C140.671 8.86208 125.969 81.4214 135.031 98.9287L136.953 99.5303C153.627 92.5066 149.683 33.0564 166.301 20.0576C168.304 18.4913 170.706 17.4066 173.317 17.9961C174.993 18.3749 176.35 19.2312 177.342 20.6006C187.076 34.0417 171.211 94.4515 168.202 112.523C163.314 141.88 165.434 170.27 164.533 199.735C164.081 214.526 158.046 265.111 165.203 275.134C168.381 276.864 170.491 276.909 174.096 276.858C175.914 276.832 175.923 277.232 177.322 278.29C177.988 280.135 178.416 281.642 178.514 283.619C178.785 289.11 179.655 295.775 175.802 300.032C161.861 305.036 126.817 302.22 110.725 302.129C103.931 302.141 95.0608 303.372 88.5626 301.436C86.7124 300.883 84.7701 299.884 84.0538 298.008C82.1803 293.1 81.8692 282.827 85.0157 278.297C87.1787 275.183 93.1077 275.759 96.6055 275.53C98.1319 273.157 97.6897 270.748 97.2227 268.04C93.0815 244.074 82.2115 222.083 75.5147 198.859C71.9755 186.582 70.1617 173.422 68.9356 160.732C67.4574 145.436 64.5531 125.269 67.6817 110.337C69.0263 103.925 77.6968 103.017 76.6075 95.8193C73.6717 76.4165 55.8175 39.899 60.2862 21.7578C61.0825 18.5244 63.1271 15.5484 66.2061 14.0908C68.4503 13.0286 71.411 12.8857 73.6524 14.043C76.712 15.6232 78.4892 18.9776 79.8985 21.956C85.0633 32.8726 88.2911 45.2303 92.3799 56.6152C98.0104 71.8989 104.087 87.0161 110.599 101.944C110.229 75.9755 105.683 39.3448 107.63 14.8721C108.17 8.079 109.788 4.46532 114.971 0.039056ZM76.0938 102.166C69.4962 108.859 69.1067 115.37 69.1632 124.542C69.3257 150.739 71.9871 178.67 79.6592 203.72C87.0063 227.709 98.4914 250.32 99.9669 275.74L161.834 275.733C157.277 251.248 160.773 227.163 161.946 202.546C162.562 189.637 162.083 176.639 161.758 163.724C141.957 146.378 128.145 137.759 103.151 129.269C98.6878 127.439 92.5824 124.07 87.7579 125.969C84.2093 127.366 82.5298 129.682 81.2032 133.076C81.9829 138.128 85.1571 141.166 89.1632 144.081C93.6047 147.313 98.6339 149.468 103.635 151.661C124.717 160.904 128.592 163.914 140.196 184.317L139.929 185.811L138.556 185.798C132.119 175.33 126.538 166.953 116.281 159.701C114.371 172.721 113.683 185.455 115.234 198.566C115.94 204.529 119.045 212.594 118.331 218.26C116.299 217.239 116.966 218.007 116.184 215.729C110.133 198.09 110.918 176.375 114.071 158.253C104.213 154.165 85.6449 150.309 81.5147 139.463C80.2915 136.253 80.3291 132.672 80.3428 129.29C78.5422 125.787 75.038 124.025 71.835 121.947L71.502 120.749C73.5492 120.21 73.1884 119.858 75.1846 121.05C76.8601 122.05 81.0518 126.273 82.4776 125.936C86.4603 124.993 89.3631 122.82 93.6378 122.314C94.7729 120.331 94.663 120.339 94.0294 118.232C92.4313 112.916 88.8428 105.738 83.4962 103.445C81.2492 102.481 78.5116 102.362 76.0938 102.166ZM116.761 1.64452C110.637 7.41276 110.041 11.8465 109.839 20.1289C109.366 39.4023 116.146 86.4413 111.684 101.069L110.267 102.247C98.0221 95.0992 86.0279 31.7581 74.5176 18.2998C72.4718 15.9082 71.1263 15.5317 68.2003 15.4463C64.9476 17.3199 63.1895 19.1688 62.1934 22.8857C59.3956 33.3259 76.4979 87.5208 80.4229 99.7051C86.8372 102.16 91.0433 105.009 93.9405 111.451C95.8017 115.591 96.9256 120.09 98.087 124.466L121.827 133.412C124.617 127.762 128.66 116.866 133.913 113.374C134.552 116.488 131.372 120.417 129.734 123.144C127.883 126.8 125.899 130.434 124.199 134.162C138.444 141.004 149.773 150.151 161.695 160.426C161.91 145.759 163.109 131.123 165.286 116.617C167.643 100.6 184.63 31.2496 174.681 20.5947C173.738 19.5849 172.129 19.8619 170.841 19.7559C165.364 22.3073 163.29 27.7637 161.365 33.1777C156.944 45.6166 150.556 95.1505 139.476 100.809C137.781 101.674 137.2 101.518 135.385 101.54C131.675 98.4652 131.198 95.0297 130.732 90.3887C129.174 74.8915 132.524 13.2832 123.562 4.71191C121.651 2.88375 119.243 2.25621 116.761 1.64452Z" fill="black"/>
</svg>
