<svg width="240" height="320" viewBox="0 0 240 320" fill="none" xmlns="http://www.w3.org/2000/svg">
<path d="M166.66 24.2656C170.411 23.9831 174.196 23.6433 177.831 24.8975C185.433 27.5249 192.241 34.8007 195.827 41.8155C198.124 46.3233 200.371 53.1429 197.893 58.044C196.554 60.6813 194.207 62.4029 191.316 62.9483C184.408 64.252 177.931 59.7927 172.709 55.9805C170.23 65.5484 161.505 90.2422 166.132 98.541C168.71 99.6465 172.428 100.892 174.56 102.684C179.385 106.731 182.904 119.915 184.805 125.844C187.763 135.099 191.513 146.903 190.175 156.657C185.696 189.264 135.082 222.566 138.734 269.549C139.081 273.933 139.924 275.956 143.229 278.826C145.393 279.036 148.335 279.045 150.367 279.777C153.325 280.843 154.647 282.977 155.424 285.896C157.109 292.163 156.481 301.068 152.862 306.477C145.773 311.692 131.893 309.621 123.283 309.459C102.504 309.583 81.6033 310.145 60.8351 309.638C55.3935 309.506 46.8635 309.917 42.9025 305.761C40.2438 299.929 39.8018 293.586 40.8742 287.275C41.6194 282.888 42.9108 280.81 46.4884 278.254L47.8097 278.21C49.8951 278.126 54.8046 278.224 56.2902 276.562C67.9944 263.457 50.0355 142.908 67.8507 113.8C69.5875 110.963 73.1626 110.342 75.5636 108.26C78.9032 105.363 80.9887 100.962 84.1515 97.7793C96.9316 84.9201 113.286 83.0365 130.322 82.8614C134.834 68.4865 136.801 47.039 144.997 34.7149C150.5 26.4394 157.588 25.8586 166.66 24.2656ZM167.058 102.107C167.173 110.145 165.505 125.609 169.471 132.582C172.214 132.668 172.594 132.001 174.891 130.641C175.899 133.119 175.221 133.199 174.23 135.557C170.148 138.148 167.174 138.716 165.075 143.244C165.224 147.489 169.933 157.245 168.81 159.843C164.827 157.984 165.769 153.113 161.605 150.784C152.731 156.442 141.874 166.381 131.183 166.867C129.316 166.953 127.482 167.048 125.614 167.091C121.252 176.908 117.186 188.027 109.552 195.792L107.933 195.449C112.808 186.564 117.93 177.744 121.664 168.312C114.691 169.019 102.215 171.78 96.6115 166.453C94.0683 164.034 93.8985 161.434 93.7101 158.174C95.3344 155.434 96.8015 154.507 99.5294 152.921C99.1643 150.163 98.9248 149.723 96.6164 147.886C90.5353 143.044 79.7877 140.326 75.2169 134.198L75.5587 132.976C81.3126 135.631 89.4402 142.386 95.5031 142.855L96.8527 141.937C98.8851 140.573 98.0777 141.089 100.35 139.807L100.463 142.541L100.949 141.972C101.994 147.749 103.222 153.549 103.984 159.367C101.683 158.985 100.758 158.369 98.8126 157.164C96.5141 158.945 96.96 158.655 96.256 161.18C98.2439 164.314 100.293 165.66 104.023 166.313C110.361 167.421 117.947 165.629 124.127 164.092C123.499 152.179 125.465 125.996 116.657 117.932C113.832 115.344 109.238 114.66 105.619 114.095C95.1294 112.421 83.4474 109.154 73.2599 113.23C63.9652 121.607 63.9038 143.155 63.299 154.884C61.1789 195.986 64.0102 236.592 60.5285 277.802L136.14 277.8C134.107 236.569 152.979 214.816 175.039 182.051C180.509 173.907 186.375 165.334 187.383 155.285C188.292 146.098 184.971 137.28 182.277 128.659C180.03 121.408 177.882 110.069 172.164 104.71C170.627 103.276 168.991 102.716 167.058 102.107ZM109.452 96.459C102.497 95.7832 95.4729 95.3455 88.5031 95.9072C85.6295 98.5858 82.9502 100.598 81.9455 104.567C83.2475 107.001 83.4957 107.507 86.2814 108.438C96.6903 111.911 116.724 108.403 122.425 119.756C128.82 132.475 120.458 153.105 129.729 163.593C132.405 164.257 134.62 164.424 137.379 164.381C142.584 160.314 143.658 157.872 144.518 151.374C146.236 138.442 146.286 117.328 138.238 106.63C132.306 98.7511 118.64 97.3513 109.452 96.459ZM157.276 87.7305C153.723 84.4636 150.632 84.4403 146.038 84.7774C134.834 85.2351 109.816 83.7353 101.25 90.1485L101.496 92.2305C114.989 96.5649 134.917 92.956 142.734 107.265C146.419 114.031 147.146 122.246 147.344 129.827C147.427 137.709 145.907 148.332 151.657 154.471L154.499 154.428C163.373 145.043 165.323 130.808 165.009 118.383C164.794 109.261 164.414 94.3123 157.276 87.7305ZM180.509 29.377C176.973 26.9991 173.37 26.5898 169.19 26.8789C161.39 28.1249 153.672 28.2878 148.484 35.086C140.634 45.3495 137.528 69.9026 133 83.124C139.263 82.3209 145.13 81.1395 151.343 82.7276C154.978 83.6529 158.498 85.0599 162.15 83.7315C165.24 79.1856 165.588 73.1761 166.529 67.8535L170.61 52.9922C169.536 50.2442 167.421 46.9804 168.347 44.168C173.04 50.0061 180.277 60.3141 188.622 60.2598C191.415 60.2416 193.679 58.6835 196.009 57.3516C196.934 55.9867 197.876 55.354 197.661 53.586C196.686 45.9863 186.623 33.4851 180.509 29.377Z" fill="black"/>
</svg>
