<svg width="340" height="320" viewBox="0 0 340 320" fill="none" xmlns="http://www.w3.org/2000/svg">
<path d="M77.3555 11C80.0938 11.1177 82.8166 11.3741 85.1729 12.9746C88.8502 15.4898 90.5378 19.9344 91.4453 24.0977C94.5339 38.0326 92.48 68.5724 93.9287 85.8135C96.0461 83.9362 98.1323 82.2166 100.632 80.8643C109.086 76.2885 126.662 59.2025 134.304 57.9902C138.618 57.3078 143.012 60.5954 147.422 59.5137C151.466 58.5209 155.207 56.9609 159.458 56.7461C164.68 56.4836 169.329 57.6992 173.022 61.624C182.415 71.6328 176.238 101.173 175.458 113.997C178.658 118.735 181.365 124.001 187.398 125.228C194.563 126.682 223.251 94.6598 234.173 87.9395C241.385 83.5071 255.125 75.8591 263.562 78.8262C268.195 80.4536 269.899 82.9754 272 87.0654C271.156 96.759 255.22 103.304 248.167 109.425C231.737 123.71 229.142 143.342 217.615 160.267C211.199 169.693 199.561 177.342 191.203 185.279C186.347 191.003 182.272 197.029 178.992 203.785C170.156 221.998 167.355 257.548 174.232 276.75C177.082 277.8 181.46 278.944 183.577 281.166C185.981 283.713 187.191 288.786 187.191 292.186C187.207 297.106 185.329 302.512 181.444 305.713C179.343 307.449 176.987 308.476 174.28 308.723C166.113 309.472 157.006 308.461 148.695 308.491C130.196 308.556 111.489 309.216 93.0059 308.543C87.163 308.331 81.2246 308.494 77.0693 304.014C74.9361 297.189 75.0153 290.169 76.2412 283.166C78.5815 279.295 82.6255 278.309 86.4941 276.349C87.6881 267.395 86.8281 257.603 86.4619 248.553C85.841 232.449 84.9343 216.456 81.8457 200.6C77.6268 178.973 70.9872 157.823 67.9941 135.957C65.3832 116.906 68.138 33.8369 73.6465 17.1953C74.3947 14.9108 75.9067 12.8916 77.3555 11ZM78.043 13C72.6561 24.0414 73.6706 38.9057 72.7041 51.0654C70.6286 77.5324 67.3485 104.025 69.9785 130.595C72.4185 155.109 80.4196 178.668 84.9668 202.81C89.4981 226.932 89.3236 252.475 89.2285 276.972L169.668 277C166.61 245.506 164.25 212.775 185.132 186.401C193.561 175.749 206.156 168.812 214.094 157.914C219.322 150.727 222.459 142.195 226.104 134.139C232.061 120.924 241.409 109.432 252.262 99.8662C257.823 97.1571 264.509 95.136 266.632 88.7852C267.392 86.5027 266.854 86.1786 266.109 84.0723C262.101 81.3012 257.221 81.8629 252.626 82.6465C219.37 88.3188 199.581 135.892 181.805 125.973C178.43 124.095 175.768 120.297 173.534 117.255C172.885 125.038 173.217 136.931 167.196 142.769C164.804 145.075 161.888 145.526 158.799 146.054C155.218 150.801 153.253 154.424 147.359 156.096L144.999 155.465C142.844 154.9 140.816 154.546 138.598 154.342C136.586 156.358 136.411 157.627 136.475 160.407C136.776 172.575 142.021 188.934 148.659 199.006L148.152 200.511C143.494 198.463 141.386 191.638 139.58 187.031C137.029 180.545 135.303 159.573 130.217 156.484C126.082 157.439 123.356 158.756 119.221 156.881C115.466 155.172 111.759 150.185 110.951 146.192C109.7 139.905 110.951 133.463 107.988 127.586L106.07 126.325C100.05 128.246 93.7284 130.934 87.3594 130.831L85.9336 130.012C91.3997 126.226 99.7176 125.685 106.023 123.189C102.379 115.463 94.5994 105.421 92.9199 97.3994C90.6701 86.5689 89.6564 75.1814 89.292 64.1416C88.8642 51.4061 91.8267 33.163 87.2637 21.208C85.4575 16.4626 82.4474 14.7955 78.043 13ZM116.776 79.9512C114.134 78.7671 110.732 79.005 107.899 79.0479C103.627 81.605 96.8864 84.8877 95.2725 90.0273C92.63 98.4812 110.02 120.887 112.473 130.343C113.992 136.174 111.619 143.542 114.783 148.946C116.571 152.01 120.653 154.416 123.707 156C127.188 155.568 130.258 155.627 132.837 152.938C138.502 137.559 132.014 105.146 125.179 90.4385C123.391 86.5734 120.859 81.7861 116.776 79.9512ZM135.837 60C126.487 63.2479 121.566 67.6631 115 74.7529C124.73 79.9297 127.989 85.5529 131.232 96.123C134.935 108.138 136.185 121.662 136.976 134.153C137.324 139.84 136.881 146.046 137.973 151.61C142.323 152.729 145.33 153.649 149.712 152.403C152.164 150.618 154.189 149.365 154.854 146.21C156.245 139.692 147.323 67.582 145.171 64.3564C143.083 61.2027 139.317 60.567 135.837 60ZM156.521 58.0156C153.044 60.1458 150.844 60.8668 149 64.5352C150.197 91.1111 157.459 116.496 159.027 143C162.035 144.736 162.617 143.83 165.867 143.119C172.886 131.265 177.107 85.3346 173.921 71.8535C172.773 66.9835 170.606 62.2907 166.094 59.6602C163.021 57.8679 159.916 57.9786 156.521 58.0156Z" fill="black"/>
</svg>
