<svg width="340" height="320" viewBox="0 0 340 320" fill="none" xmlns="http://www.w3.org/2000/svg">
<path d="M58.9668 0.214539C61.8221 0.171863 64.7597 0.444002 67.4346 1.42548C80.4811 6.18574 93.2 12.9625 106.033 18.404C131.88 29.3624 158.613 39.7577 185.297 48.487C201.593 53.8185 222.402 46.8899 232.691 54.6804C237.352 58.2013 239.929 63.8479 241.455 69.3386C246.23 86.4688 244.014 105.637 248.019 123.289C255.108 154.621 269.09 184.02 273.324 216.187C275.655 233.935 271.421 251.368 273.275 268.854C277.854 273.462 282.498 278.273 283.68 284.918C284.713 290.733 282.449 294.637 279.249 299.205C269.731 304.83 252.843 302.329 241.979 302.122C222.845 302.263 196.276 304.793 177.994 301.62C174.745 301.057 171.791 300.578 170.084 297.484C166.999 291.929 168.247 280.976 169.625 275.043C172.759 271.292 175.762 271.075 180.357 269.596C181.03 268.456 181.161 268.355 181.687 266.899C185.707 255.755 185.723 230.741 181.079 219.904C175.45 206.818 160.533 201.227 152.541 190.188C140.758 173.926 132.52 155.558 122.182 138.436C115.831 127.924 105.836 117.504 100.979 106.378C99.6823 103.39 99.9771 99.2903 101.191 96.321C104.769 87.5967 115.305 84.4036 123.379 81.444L124.02 79.4772C122.329 73.7257 120.803 69.5568 123.019 63.6296C123.166 63.2373 123.346 62.8542 123.494 62.4684C115.338 51.313 69.8475 36.7136 58.7539 15.7341C55.7181 9.97925 56.9647 6.14173 58.9668 0.214539ZM221.47 53.4763C219.388 53.2096 217.485 53.0828 215.403 53.3874C193.107 55.1521 144.664 55.8799 126.646 64.5602C124.892 67.26 124.368 68.9938 124.876 72.2829C126.056 80.0825 130.45 87.645 135.105 93.8395C135.548 89.0573 135.696 83.5685 140.057 80.5065C146.173 76.2084 188.517 71.9193 195.796 73.9225C196.255 74.0493 196.649 74.3828 197.075 74.6149C186.501 76.0537 146.401 77.2476 140.368 85.0407C137.434 88.85 138.417 94.9014 139.598 99.1618C144.122 115.53 154.467 133.381 167.304 144.384C162.254 132.751 149.811 110.723 154.778 98.2907C156.352 94.3778 159.451 91.8754 163.287 90.402C171.075 87.4175 202.338 85.6665 210.06 88.1901L210.141 89.7155C196.402 95.0606 164.205 82.9206 157.106 100.986C153.467 110.267 163.303 129.476 167.828 137.58C169.287 140.194 170.697 141.467 173.205 142.985C173.762 143.324 174.32 143.681 174.894 144.011C180.926 147.551 196.222 154.02 203.271 150.993C203.993 150.682 204.6 150.157 205.272 149.737C205.518 146.471 204.731 144.987 202.518 142.519C198.108 137.612 192.387 135.576 188.141 129.895C185.419 129.834 186.665 129.475 184.402 130.969C183.157 129.195 183.091 128.606 182.779 126.522C179.369 123.954 173.435 121.392 172.353 117.39C175.746 116.786 181.763 122.263 184.796 124.324C187.927 120.92 190.304 118.035 194.665 116.325C194.534 119.474 190.419 122.691 188.255 124.989C191.665 129.175 194.944 134.413 199.977 136.628C207.633 136.568 214.518 132.685 222.142 133.999L223.175 135.084C217.437 136.06 212.632 136.829 207.436 139.657C201.845 151.347 213.157 162.169 196.124 177.836L194.665 177.341L196.092 174.828C199.534 168.992 201.796 163.485 203.96 157.103C192.779 153.878 170.762 148.724 161.385 142.459C155.09 138.254 154.434 130.297 145.106 132.337C141.418 134.831 140.45 137.087 138.598 140.915L136.467 145.244L135.04 144.816C134.647 141.509 136.466 138.667 137.811 135.752L137.63 135.069L135.811 135.981L136.318 135.122L132.302 135.084C134.22 131.516 138.155 130.196 141.237 127.716L133.876 113.549C133.548 113.907 133.237 114.268 132.893 114.622C128.302 119.578 124.957 120.991 118.433 122.112C125.4 116.864 131.122 115.55 132.63 105.812C133.548 99.896 132.269 93.9206 128.434 89.2751C126.548 87 124.056 85.2104 121.072 84.7956C116.876 84.2145 113.924 86.7754 111.121 89.4899C108.219 92.3 102.514 98.8659 102.957 103.276C103.58 109.456 114.45 121.985 118.253 127.536C131.925 147.458 140.679 171.844 155.991 190.42C164.008 200.154 177.927 205.925 183.042 217.904C189.6 233.283 186.779 255.307 183.632 271.211L268.159 271.205C270.536 253.088 272.094 235.428 269.832 217.21C265.52 182.625 250.273 150.572 243.257 116.591C239.863 100.115 243.896 74.3471 234.076 60.4499C230.994 56.0925 226.617 54.1348 221.47 53.4763ZM60.6367 3.21063C59.5569 8.34519 59.4259 11.9806 62.3711 16.6393C72.8107 33.1542 109.611 51.6057 127.578 60.2106C143.777 56.3873 161.433 55.6068 178.009 54.2839L183.933 53.07C182.623 50.4424 178.124 49.2341 175.375 48.32C151.125 40.2335 127.594 31.3673 103.999 21.5261C90.5159 15.9088 74.7744 5.83856 60.6367 3.21063Z" fill="black"/>
</svg>
